<svg width="1000" height="1000" viewBox="0 0 1000 1000" fill="none" xmlns="http://www.w3.org/2000/svg">
<rect width="1000" height="1000" fill="white"/>
<path fill-rule="evenodd" clip-rule="evenodd" d="M348.497 521.751L593.055 380.556C567.177 360.155 534.51 347.983 499.001 347.983C415.026 347.983 346.95 416.058 346.95 500.033C346.95 507.4 347.474 514.645 348.487 521.732L215.74 598.374L271.481 694.919L403.765 618.545C374.46 594.968 354.08 560.747 348.497 521.751ZM649.293 476.789C643.331 437.885 622.624 403.837 593.056 380.53L725.324 304.165L781.065 400.711L649.293 476.789ZM499.001 652.083C462.949 652.083 429.827 639.536 403.765 618.57L649.289 476.816C650.449 484.386 651.051 492.139 651.051 500.033C651.051 584.008 582.976 652.083 499.001 652.083Z" fill="black"/>
</svg>
