<svg width="1746" height="210" viewBox="0 0 1746 210" fill="none" xmlns="http://www.w3.org/2000/svg">
<path fill-rule="evenodd" clip-rule="evenodd" d="M65.0802 107.596L184.964 38.3808C172.278 28.3819 156.266 22.4157 138.86 22.4158C97.6932 22.4158 64.3213 55.7877 64.3213 96.954C64.3213 100.565 64.5781 104.116 65.0744 107.59L0 145.161L27.3253 192.49L92.1701 155.051C77.8042 143.492 67.8148 126.714 65.0802 107.596ZM212.537 85.5574C209.613 66.4862 199.46 49.7961 184.964 38.3716L249.809 0.933594L277.134 48.2623L212.537 85.5574ZM138.86 171.492C121.184 171.492 104.946 165.34 92.1695 155.061L212.534 85.5682C213.103 89.2804 213.398 93.0827 213.398 96.954C213.398 138.12 180.026 171.492 138.86 171.492Z" fill="black"/>
<path d="M416.209 24.5132H485.424V37.491H416.209C412.639 37.491 410.235 38.1776 408.999 39.5509C407.763 40.9243 407.145 43.4649 407.145 47.1728V79.1023C407.145 83.6343 407.901 86.5869 409.411 87.9602C411.059 89.3335 413.325 90.0202 416.209 90.0202H458.851C470.661 90.0202 478.695 93.5221 482.952 100.526C484.738 103.547 485.768 106.775 486.042 110.208C486.317 113.641 486.454 116.937 486.454 120.096V144.197C486.454 151.476 483.982 157.381 479.038 161.913C474.094 166.445 467.709 168.711 459.881 168.711H395.198V155.733H459.881C464.138 155.733 467.434 154.703 469.769 152.643C472.24 150.583 473.476 147.768 473.476 144.197V120.096C473.476 116.937 473.408 114.328 473.27 112.268C473.133 110.071 472.584 108.285 471.622 106.912C470.661 105.539 469.151 104.577 467.091 104.028C465.168 103.341 462.421 102.998 458.851 102.998H416.209C409.205 102.998 403.781 100.938 399.936 96.8181C396.09 92.6981 394.168 86.7929 394.168 79.1023V47.1728C394.168 42.2289 394.923 38.315 396.434 35.431C397.944 32.4097 399.798 30.0751 401.996 28.4271C404.33 26.7791 406.734 25.7492 409.205 25.3372C411.815 24.7878 414.149 24.5132 416.209 24.5132ZM515.667 65.7125V74.5704C519.238 72.3731 523.014 70.3818 526.997 68.5965C531.117 66.6739 534.756 65.7125 537.915 65.7125H571.08C573.14 65.7125 575.406 65.9872 577.878 66.5365C580.35 66.9485 582.685 67.9785 584.882 69.6265C587.217 71.1371 589.139 73.4031 590.65 76.4244C592.161 79.3083 592.916 83.1536 592.916 87.9602V143.785C592.916 148.729 592.161 152.712 590.65 155.733C589.139 158.617 587.217 160.883 584.882 162.531C582.685 164.042 580.35 165.072 577.878 165.621C575.406 166.033 573.14 166.239 571.08 166.239H537.915C534.756 166.239 531.117 165.346 526.997 163.561C523.014 161.638 519.238 159.578 515.667 157.381V209.91H502.895V65.7125H515.667ZM537.915 78.4843C536.13 78.4843 533.04 79.6517 528.645 81.9863C524.25 84.1836 519.924 86.7242 515.667 89.6082V142.343C517.727 143.717 519.856 145.09 522.053 146.463C524.388 147.837 526.585 149.073 528.645 150.171C530.705 151.133 532.559 151.957 534.207 152.643C535.855 153.193 537.091 153.467 537.915 153.467H571.08C574.651 153.467 577.054 152.781 578.29 151.407C579.526 150.034 580.144 147.493 580.144 143.785V87.9602C580.144 84.3896 579.526 81.9176 578.29 80.5443C577.054 79.171 574.651 78.4843 571.08 78.4843H537.915ZM633.924 106.706H688.513V106.5C688.513 99.496 687.826 94.1401 686.453 90.4322C685.217 86.7242 683.638 83.9776 681.715 82.1923C679.93 80.407 678.076 79.377 676.153 79.1023C674.231 78.8277 672.72 78.6903 671.621 78.6903H614.354V65.7125H671.621C674.368 65.7125 677.458 66.1932 680.891 67.1545C684.462 67.9785 687.758 69.8325 690.779 72.7164C693.938 75.6004 696.547 79.7203 698.607 85.0762C700.667 90.4322 701.697 97.5734 701.697 106.5L701.491 168.711L688.513 168.505V159.647C684.805 161.844 680.822 163.904 676.565 165.827C672.445 167.75 668.806 168.711 665.647 168.711H631.658C629.598 168.711 627.263 168.505 624.654 168.093C622.182 167.544 619.779 166.445 617.444 164.797C615.247 163.149 613.324 160.814 611.676 157.793C610.166 154.772 609.41 150.789 609.41 145.845V128.542C609.41 126.894 609.616 124.834 610.028 122.362C610.578 119.89 611.676 117.486 613.324 115.152C615.109 112.817 617.581 110.826 620.74 109.178C624.036 107.53 628.431 106.706 633.924 106.706ZM622.388 128.542V145.845C622.388 149.691 623.006 152.3 624.242 153.673C625.615 155.046 628.087 155.733 631.658 155.733H665.647C667.57 155.733 670.729 154.566 675.123 152.231C679.655 149.759 684.118 147.081 688.513 144.197V119.684H633.924C631.315 119.684 629.255 119.958 627.744 120.508C626.233 120.92 625.066 121.538 624.242 122.362C623.418 123.186 622.869 124.147 622.594 125.246C622.457 126.207 622.388 127.306 622.388 128.542ZM717.937 142.549V91.2561C717.937 86.3122 718.967 82.1923 721.027 78.8963C723.087 75.6004 725.627 72.9911 728.649 71.0685C731.807 69.1458 735.103 67.7725 738.536 66.9485C742.107 66.1245 745.266 65.7125 748.012 65.7125H805.279V78.6903H748.012C746.914 78.6903 745.403 78.8277 743.48 79.1023C741.558 79.2397 739.635 79.7203 737.712 80.5443C735.927 81.3683 734.348 82.6043 732.974 84.2523C731.601 85.9002 730.915 88.2349 730.915 91.2561V115.152V142.549C730.915 145.296 731.601 147.562 732.974 149.347C734.348 150.995 735.927 152.3 737.712 153.261C739.635 154.222 741.558 154.909 743.48 155.321C745.403 155.596 746.914 155.733 748.012 155.733H805.279V168.711H748.012C745.266 168.711 742.107 168.23 738.536 167.269C735.103 166.308 731.807 164.797 728.649 162.737C725.627 160.54 723.087 157.793 721.027 154.497C718.967 151.201 717.937 147.219 717.937 142.549ZM821.836 127.924C821.836 122.842 821.836 117.83 821.836 112.886C821.974 107.805 822.042 102.723 822.042 97.642C822.042 76.3557 833.99 65.7125 857.886 65.7125H891.669C893.729 65.7125 896.064 65.9872 898.673 66.5365C901.282 66.9485 903.686 67.9785 905.883 69.6265C908.218 71.2745 910.14 73.6091 911.651 76.6304C913.299 79.6517 914.123 83.6343 914.123 88.5782V105.882C914.123 107.53 913.848 109.59 913.299 112.062C912.887 114.534 911.788 116.937 910.003 119.272C908.355 121.606 905.883 123.598 902.587 125.246C899.428 126.894 895.103 127.718 889.609 127.718L834.814 127.924C834.814 134.927 835.432 140.283 836.668 143.991C838.041 147.699 839.621 150.446 841.406 152.231C843.329 154.016 845.251 155.046 847.174 155.321C849.097 155.596 850.676 155.733 851.912 155.733H913.917V168.711H851.912C849.165 168.711 846.007 168.23 842.436 167.269C839.003 166.308 835.707 164.385 832.548 161.501C829.527 158.617 826.986 154.497 824.926 149.141C822.866 143.785 821.836 136.713 821.836 127.924ZM889.609 114.74C892.219 114.74 894.279 114.534 895.789 114.122C897.3 113.572 898.398 112.886 899.085 112.062C899.909 111.238 900.39 110.345 900.527 109.384C900.802 108.285 900.939 107.118 900.939 105.882V88.5782C900.939 84.7329 900.252 82.1236 898.879 80.7503C897.643 79.377 895.24 78.6903 891.669 78.6903H857.886C854.864 78.6903 851.981 78.8963 849.234 79.3083C846.487 79.583 844.015 80.3383 841.818 81.5743C839.758 82.8103 838.11 84.7329 836.874 87.3422C835.638 89.8142 835.02 93.2474 835.02 97.642V114.74H889.609ZM930.564 55.0007C930.564 50.0568 931.457 45.7309 933.242 42.0229C935.027 38.1776 937.362 35.019 940.246 32.5471C943.13 29.9378 946.357 27.9465 949.928 26.5731C953.498 25.1998 957 24.5132 960.434 24.5132H1017.08V37.491H960.434C958.648 37.491 956.726 37.903 954.666 38.727C952.743 39.4136 950.958 40.5123 949.31 42.0229C947.662 43.3962 946.288 45.1815 945.19 47.3788C944.091 49.5761 943.542 52.1168 943.542 55.0007V85.9002V107.324V139.047C943.542 142.618 944.022 145.502 944.984 147.699C946.082 149.897 947.456 151.613 949.104 152.849C950.752 153.948 952.537 154.703 954.46 155.115C956.52 155.527 958.511 155.733 960.434 155.733H1017.08V168.711H960.434C957 168.711 953.498 168.23 949.928 167.269C946.357 166.17 943.13 164.454 940.246 162.119C937.362 159.784 935.027 156.763 933.242 153.055C931.457 149.21 930.564 144.541 930.564 139.047C930.564 135.065 930.564 131.151 930.564 127.306C930.564 123.46 930.564 120.096 930.564 117.212C930.564 114.19 930.564 111.787 930.564 110.002C930.701 108.079 930.77 107.118 930.77 107.118V85.9002C930.77 85.9002 930.701 85.0762 930.564 83.4283C930.564 81.643 930.564 79.3083 930.564 76.4244C930.564 73.5404 930.564 70.2445 930.564 66.5365C930.564 62.8286 930.564 58.9833 930.564 55.0007ZM1033.66 145.845V88.5782C1033.66 83.6343 1034.41 79.6517 1035.92 76.6304C1037.57 73.6091 1039.5 71.2745 1041.69 69.6265C1044.03 67.9785 1046.43 66.9485 1048.9 66.5365C1051.51 65.9872 1053.85 65.7125 1055.91 65.7125H1103.49C1105.55 65.7125 1107.89 65.9872 1110.5 66.5365C1113.11 66.9485 1115.51 67.9785 1117.71 69.6265C1120.04 71.2745 1121.96 73.6091 1123.47 76.6304C1125.12 79.6517 1125.95 83.6343 1125.95 88.5782V145.845C1125.95 150.789 1125.12 154.772 1123.47 157.793C1121.96 160.814 1120.04 163.149 1117.71 164.797C1115.51 166.445 1113.11 167.544 1110.5 168.093C1107.89 168.505 1105.55 168.711 1103.49 168.711H1055.91C1053.85 168.711 1051.51 168.505 1048.9 168.093C1046.43 167.544 1044.03 166.445 1041.69 164.797C1039.5 163.149 1037.57 160.814 1035.92 157.793C1034.41 154.772 1033.66 150.789 1033.66 145.845ZM1046.64 88.5782V145.845C1046.64 149.691 1047.25 152.3 1048.49 153.673C1049.86 155.046 1052.34 155.733 1055.91 155.733H1103.49C1107.06 155.733 1109.47 155.046 1110.7 153.673C1112.08 152.3 1112.76 149.691 1112.76 145.845V88.5782C1112.76 84.7329 1112.08 82.1236 1110.7 80.7503C1109.47 79.377 1107.06 78.6903 1103.49 78.6903H1055.91C1052.34 78.6903 1049.86 79.377 1048.49 80.7503C1047.25 82.1236 1046.64 84.7329 1046.64 88.5782ZM1142.39 65.7125H1155.36V74.7764C1159.07 72.5791 1162.99 70.5191 1167.11 68.5965C1171.36 66.6739 1175.07 65.7125 1178.23 65.7125H1188.32C1191.35 65.7125 1194.71 66.3305 1198.42 67.5665C1202.26 68.8025 1205.35 71.4118 1207.69 75.3944C1211.4 73.0598 1215.45 70.8625 1219.84 68.8025C1224.24 66.7425 1228.08 65.7125 1231.38 65.7125H1241.47C1243.53 65.7125 1245.87 65.9872 1248.47 66.5365C1251.08 67.0859 1253.49 68.1845 1255.68 69.8325C1258.02 71.3431 1259.94 73.6091 1261.45 76.6304C1262.96 79.6517 1263.72 83.6343 1263.72 88.5782V168.711H1250.74V88.5782C1250.74 84.8702 1250.05 82.3296 1248.68 80.9563C1247.44 79.583 1245.04 78.8963 1241.47 78.8963H1231.38C1229.59 78.8963 1226.71 79.8577 1222.73 81.7803C1218.74 83.7029 1214.76 86.0376 1210.78 88.7842V168.711H1197.59V88.5782C1197.59 84.8702 1196.91 82.3296 1195.53 80.9563C1194.3 79.583 1191.89 78.8963 1188.32 78.8963H1178.23C1176.31 78.8963 1173.08 80.0637 1168.55 82.3983C1164.15 84.7329 1159.76 87.3422 1155.36 90.2262V168.711H1142.39V65.7125ZM1293.06 65.7125V74.5704C1296.63 72.3731 1300.4 70.3818 1304.39 68.5965C1308.51 66.6739 1312.14 65.7125 1315.3 65.7125H1348.47C1350.53 65.7125 1352.79 65.9872 1355.27 66.5365C1357.74 66.9485 1360.07 67.9785 1362.27 69.6265C1364.61 71.1371 1366.53 73.4031 1368.04 76.4244C1369.55 79.3083 1370.3 83.1536 1370.3 87.9602V143.785C1370.3 148.729 1369.55 152.712 1368.04 155.733C1366.53 158.617 1364.61 160.883 1362.27 162.531C1360.07 164.042 1357.74 165.072 1355.27 165.621C1352.79 166.033 1350.53 166.239 1348.47 166.239H1315.3C1312.14 166.239 1308.51 165.346 1304.39 163.561C1300.4 161.638 1296.63 159.578 1293.06 157.381V209.91H1280.28V65.7125H1293.06ZM1315.3 78.4843C1313.52 78.4843 1310.43 79.6517 1306.03 81.9863C1301.64 84.1836 1297.31 86.7242 1293.06 89.6082V142.343C1295.12 143.717 1297.24 145.09 1299.44 146.463C1301.78 147.837 1303.97 149.073 1306.03 150.171C1308.09 151.133 1309.95 151.957 1311.6 152.643C1313.24 153.193 1314.48 153.467 1315.3 153.467H1348.47C1352.04 153.467 1354.44 152.781 1355.68 151.407C1356.91 150.034 1357.53 147.493 1357.53 143.785V87.9602C1357.53 84.3896 1356.91 81.9176 1355.68 80.5443C1354.44 79.171 1352.04 78.4843 1348.47 78.4843H1315.3ZM1386.8 65.7125H1399.78V145.845C1399.78 149.553 1400.39 152.094 1401.63 153.467C1403 154.84 1405.48 155.527 1409.05 155.527H1443.04C1443.86 155.527 1445.1 155.252 1446.74 154.703C1448.53 154.016 1450.45 153.124 1452.51 152.025C1454.57 150.927 1456.77 149.691 1459.1 148.317C1461.44 146.944 1463.7 145.571 1465.9 144.197V65.7125H1478.88V168.711H1465.9V159.647C1462.19 161.844 1458.21 163.904 1453.95 165.827C1449.83 167.612 1446.19 168.505 1443.04 168.505H1409.05C1406.99 168.505 1404.65 168.299 1402.04 167.887C1399.57 167.338 1397.17 166.239 1394.83 164.591C1392.64 162.943 1390.71 160.677 1389.06 157.793C1387.55 154.772 1386.8 150.789 1386.8 145.845V65.7125ZM1525.4 65.7125C1522.38 63.1032 1520.11 60.288 1518.6 57.2667C1517.09 54.2454 1515.99 51.3614 1515.31 48.6148C1514.62 45.4562 1514.28 42.2976 1514.28 39.139H1527.05C1527.05 41.7483 1527.32 44.3575 1527.87 46.9668C1528.42 49.0268 1529.25 51.2241 1530.34 53.5587C1531.44 55.8934 1533.16 57.9533 1535.49 59.7386C1537.01 60.9746 1538.79 62.0046 1540.85 62.8286C1543.05 63.5152 1545.24 64.0646 1547.44 64.4766C1549.64 64.8886 1551.77 65.2319 1553.83 65.5065C1555.89 65.6439 1557.74 65.7125 1559.39 65.7125H1563.92V78.6903H1527.25C1527.25 81.5743 1527.19 85.2136 1527.05 89.6082C1527.05 93.8654 1527.05 98.3974 1527.05 103.204C1527.05 107.873 1527.05 112.474 1527.05 117.006C1527.05 121.538 1527.05 125.314 1527.05 128.336C1527.05 135.202 1527.67 140.489 1528.9 144.197C1530.28 147.905 1531.86 150.652 1533.64 152.437C1535.56 154.085 1537.49 155.046 1539.41 155.321C1541.33 155.596 1542.84 155.733 1543.94 155.733H1563.92V168.711H1543.94C1541.19 168.711 1538.1 168.299 1534.67 167.475C1531.24 166.514 1528.01 164.591 1524.99 161.707C1521.97 158.823 1519.43 154.772 1517.37 149.553C1515.31 144.197 1514.28 137.125 1514.28 128.336V78.6903H1495.33V65.7125H1525.4ZM1580.31 127.924C1580.31 122.842 1580.31 117.83 1580.31 112.886C1580.45 107.805 1580.52 102.723 1580.52 97.642C1580.52 76.3557 1592.47 65.7125 1616.36 65.7125H1650.15C1652.21 65.7125 1654.54 65.9872 1657.15 66.5365C1659.76 66.9485 1662.16 67.9785 1664.36 69.6265C1666.7 71.2745 1668.62 73.6091 1670.13 76.6304C1671.78 79.6517 1672.6 83.6343 1672.6 88.5782V105.882C1672.6 107.53 1672.33 109.59 1671.78 112.062C1671.37 114.534 1670.27 116.937 1668.48 119.272C1666.83 121.606 1664.36 123.598 1661.07 125.246C1657.91 126.894 1653.58 127.718 1648.09 127.718L1593.29 127.924C1593.29 134.927 1593.91 140.283 1595.15 143.991C1596.52 147.699 1598.1 150.446 1599.88 152.231C1601.81 154.016 1603.73 155.046 1605.65 155.321C1607.58 155.596 1609.15 155.733 1610.39 155.733H1672.4V168.711H1610.39C1607.64 168.711 1604.49 168.23 1600.91 167.269C1597.48 166.308 1594.19 164.385 1591.03 161.501C1588.01 158.617 1585.46 154.497 1583.4 149.141C1581.34 143.785 1580.31 136.713 1580.31 127.924ZM1648.09 114.74C1650.7 114.74 1652.76 114.534 1654.27 114.122C1655.78 113.572 1656.88 112.886 1657.56 112.062C1658.39 111.238 1658.87 110.345 1659.01 109.384C1659.28 108.285 1659.42 107.118 1659.42 105.882V88.5782C1659.42 84.7329 1658.73 82.1236 1657.36 80.7503C1656.12 79.377 1653.72 78.6903 1650.15 78.6903H1616.36C1613.34 78.6903 1610.46 78.8963 1607.71 79.3083C1604.97 79.583 1602.49 80.3383 1600.3 81.5743C1598.24 82.8103 1596.59 84.7329 1595.35 87.3422C1594.12 89.8142 1593.5 93.2474 1593.5 97.642V114.74H1648.09ZM1689.04 168.711V65.7125H1702.02V73.1284C1705.45 71.2058 1708.96 69.4892 1712.53 67.9785C1716.23 66.4679 1719.46 65.7125 1722.21 65.7125H1739.51V78.6903H1722.21C1720.56 78.6903 1717.74 79.6517 1713.76 81.5743C1709.92 83.4969 1706 85.7629 1702.02 88.3722V168.711H1689.04Z" fill="black"/>
</svg>
