<svg width="500" height="500" viewBox="0 0 500 500" fill="none" xmlns="http://www.w3.org/2000/svg">
<g clip-path="url(#clip0_1460_164)">
<path fill-rule="evenodd" clip-rule="evenodd" d="M117.417 269.145L333.707 144.27C310.82 126.23 281.931 115.467 250.528 115.467C176.256 115.467 116.047 175.676 116.047 249.947C116.047 256.46 116.51 262.865 117.405 269.131L0 336.915L49.2997 422.305L166.292 354.759C140.374 333.905 122.352 303.636 117.417 269.145ZM383.455 229.38C378.179 194.972 359.863 164.86 333.709 144.248L450.7 76.7031L500 162.093L383.455 229.38ZM250.528 384.427C218.638 384.427 189.341 373.328 166.289 354.781L383.449 229.404C384.476 236.102 385.008 242.962 385.008 249.947C385.008 324.219 324.799 384.427 250.528 384.427Z" fill="black"/>
</g>
<defs>
<clipPath id="clip0_1460_164">
<rect width="500" height="500" fill="white"/>
</clipPath>
</defs>
</svg>
