<svg width="501" height="500" viewBox="0 0 501 500" fill="none" xmlns="http://www.w3.org/2000/svg">
<g clip-path="url(#clip0_1460_173)">
<path fill-rule="evenodd" clip-rule="evenodd" d="M118.156 269.145L334.446 144.27C311.559 126.23 282.669 115.467 251.266 115.467C176.995 115.467 116.786 175.676 116.786 249.947C116.786 256.46 117.249 262.865 118.144 269.131L0.738525 336.915L50.0382 422.305L167.03 354.759C141.112 333.905 123.09 303.636 118.156 269.145ZM384.194 229.38C378.918 194.972 360.601 164.86 334.448 144.248L451.439 76.7031L500.739 162.093L384.194 229.38ZM251.266 384.427C219.377 384.427 190.08 373.328 167.028 354.781L384.188 229.404C385.214 236.102 385.747 242.962 385.747 249.947C385.747 324.219 325.538 384.427 251.266 384.427Z" fill="#FDD400"/>
</g>
<defs>
<clipPath id="clip0_1460_173">
<rect width="500" height="500" fill="white" transform="translate(0.738525)"/>
</clipPath>
</defs>
</svg>
