<svg width="1746" height="210" viewBox="0 0 1746 210" fill="none" xmlns="http://www.w3.org/2000/svg">
<path fill-rule="evenodd" clip-rule="evenodd" d="M65.0802 107.525L184.964 38.3105C172.278 28.3116 156.266 22.3454 138.86 22.3454C97.6932 22.3454 64.3213 55.7173 64.3213 96.8837C64.3213 100.495 64.5781 104.046 65.0744 107.52L0 145.09L27.3253 192.419L92.1701 154.981C77.8042 143.421 67.8148 126.643 65.0802 107.525ZM212.537 85.4871C209.613 66.4159 199.46 49.7257 184.964 38.3013L249.809 0.863281L277.134 48.192L212.537 85.4871ZM138.86 171.422C121.184 171.422 104.946 165.27 92.1695 154.99L212.534 85.4979C213.103 89.2101 213.398 93.0124 213.398 96.8837C213.398 138.05 180.026 171.422 138.86 171.422Z" fill="#FDD400"/>
<path d="M416.209 24.4429H485.424V37.4207H416.209C412.639 37.4207 410.235 38.1073 408.999 39.4806C407.763 40.8539 407.145 43.3946 407.145 47.1025V79.032C407.145 83.564 407.901 86.5166 409.411 87.8899C411.059 89.2632 413.325 89.9498 416.209 89.9498H458.851C470.661 89.9498 478.695 93.4518 482.952 100.456C484.738 103.477 485.768 106.704 486.042 110.138C486.317 113.571 486.454 116.867 486.454 120.025V144.127C486.454 151.406 483.982 157.311 479.038 161.843C474.094 166.375 467.709 168.641 459.881 168.641H395.198V155.663H459.881C464.138 155.663 467.434 154.633 469.769 152.573C472.24 150.513 473.476 147.698 473.476 144.127V120.025C473.476 116.867 473.408 114.257 473.27 112.198C473.133 110 472.584 108.215 471.622 106.842C470.661 105.468 469.151 104.507 467.091 103.958C465.168 103.271 462.421 102.928 458.851 102.928H416.209C409.205 102.928 403.781 100.868 399.936 96.7477C396.09 92.6278 394.168 86.7226 394.168 79.032V47.1025C394.168 42.1586 394.923 38.2447 396.434 35.3607C397.944 32.3394 399.798 30.0048 401.996 28.3568C404.33 26.7088 406.734 25.6789 409.205 25.2669C411.815 24.7175 414.149 24.4429 416.209 24.4429ZM515.667 65.6422V74.5001C519.238 72.3028 523.014 70.3115 526.997 68.5262C531.117 66.6036 534.756 65.6422 537.915 65.6422H571.08C573.14 65.6422 575.406 65.9169 577.878 66.4662C580.35 66.8782 582.685 67.9082 584.882 69.5562C587.217 71.0668 589.139 73.3328 590.65 76.3541C592.161 79.238 592.916 83.0833 592.916 87.8899V143.715C592.916 148.659 592.161 152.642 590.65 155.663C589.139 158.547 587.217 160.813 584.882 162.461C582.685 163.971 580.35 165.001 577.878 165.551C575.406 165.963 573.14 166.169 571.08 166.169H537.915C534.756 166.169 531.117 165.276 526.997 163.491C523.014 161.568 519.238 159.508 515.667 157.311V209.84H502.895V65.6422H515.667ZM537.915 78.414C536.13 78.414 533.04 79.5813 528.645 81.916C524.25 84.1133 519.924 86.6539 515.667 89.5379V142.273C517.727 143.646 519.856 145.02 522.053 146.393C524.388 147.766 526.585 149.002 528.645 150.101C530.705 151.062 532.559 151.886 534.207 152.573C535.855 153.122 537.091 153.397 537.915 153.397H571.08C574.651 153.397 577.054 152.71 578.29 151.337C579.526 149.964 580.144 147.423 580.144 143.715V87.8899C580.144 84.3193 579.526 81.8473 578.29 80.474C577.054 79.1007 574.651 78.414 571.08 78.414H537.915ZM633.924 106.636H688.513V106.43C688.513 99.4257 687.826 94.0698 686.453 90.3618C685.217 86.6539 683.638 83.9073 681.715 82.122C679.93 80.3367 678.076 79.3067 676.153 79.032C674.231 78.7574 672.72 78.62 671.621 78.62H614.354V65.6422H671.621C674.368 65.6422 677.458 66.1229 680.891 67.0842C684.462 67.9082 687.758 69.7622 690.779 72.6461C693.938 75.5301 696.547 79.65 698.607 85.0059C700.667 90.3618 701.697 97.5031 701.697 106.43L701.491 168.641L688.513 168.435V159.577C684.805 161.774 680.822 163.834 676.565 165.757C672.445 167.679 668.806 168.641 665.647 168.641H631.658C629.598 168.641 627.263 168.435 624.654 168.023C622.182 167.473 619.779 166.375 617.444 164.727C615.247 163.079 613.324 160.744 611.676 157.723C610.166 154.702 609.41 150.719 609.41 145.775V128.471C609.41 126.823 609.616 124.763 610.028 122.291C610.578 119.819 611.676 117.416 613.324 115.081C615.109 112.747 617.581 110.756 620.74 109.108C624.036 107.46 628.431 106.636 633.924 106.636ZM622.388 128.471V145.775C622.388 149.62 623.006 152.23 624.242 153.603C625.615 154.976 628.087 155.663 631.658 155.663H665.647C667.57 155.663 670.729 154.496 675.123 152.161C679.655 149.689 684.118 147.011 688.513 144.127V119.613H633.924C631.315 119.613 629.255 119.888 627.744 120.437C626.233 120.849 625.066 121.467 624.242 122.291C623.418 123.115 622.869 124.077 622.594 125.175C622.457 126.137 622.388 127.235 622.388 128.471ZM717.937 142.479V91.1858C717.937 86.2419 718.967 82.122 721.027 78.826C723.087 75.5301 725.627 72.9208 728.649 70.9981C731.807 69.0755 735.103 67.7022 738.536 66.8782C742.107 66.0542 745.266 65.6422 748.012 65.6422H805.279V78.62H748.012C746.914 78.62 745.403 78.7574 743.48 79.032C741.558 79.1694 739.635 79.65 737.712 80.474C735.927 81.298 734.348 82.534 732.974 84.1819C731.601 85.8299 730.915 88.1645 730.915 91.1858V115.081V142.479C730.915 145.226 731.601 147.492 732.974 149.277C734.348 150.925 735.927 152.23 737.712 153.191C739.635 154.152 741.558 154.839 743.48 155.251C745.403 155.525 746.914 155.663 748.012 155.663H805.279V168.641H748.012C745.266 168.641 742.107 168.16 738.536 167.199C735.103 166.237 731.807 164.727 728.649 162.667C725.627 160.469 723.087 157.723 721.027 154.427C718.967 151.131 717.937 147.148 717.937 142.479ZM821.836 127.853C821.836 122.772 821.836 117.759 821.836 112.815C821.974 107.734 822.042 102.653 822.042 97.5717C822.042 76.2854 833.99 65.6422 857.886 65.6422H891.669C893.729 65.6422 896.064 65.9169 898.673 66.4662C901.282 66.8782 903.686 67.9082 905.883 69.5562C908.218 71.2041 910.14 73.5388 911.651 76.5601C913.299 79.5813 914.123 83.564 914.123 88.5079V105.812C914.123 107.46 913.848 109.52 913.299 111.992C912.887 114.463 911.788 116.867 910.003 119.201C908.355 121.536 905.883 123.527 902.587 125.175C899.428 126.823 895.103 127.647 889.609 127.647L834.814 127.853C834.814 134.857 835.432 140.213 836.668 143.921C838.041 147.629 839.621 150.376 841.406 152.161C843.329 153.946 845.251 154.976 847.174 155.251C849.097 155.525 850.676 155.663 851.912 155.663H913.917V168.641H851.912C849.165 168.641 846.007 168.16 842.436 167.199C839.003 166.237 835.707 164.315 832.548 161.431C829.527 158.547 826.986 154.427 824.926 149.071C822.866 143.715 821.836 136.642 821.836 127.853ZM889.609 114.669C892.219 114.669 894.279 114.463 895.789 114.051C897.3 113.502 898.398 112.815 899.085 111.992C899.909 111.168 900.39 110.275 900.527 109.314C900.802 108.215 900.939 107.048 900.939 105.812V88.5079C900.939 84.6626 900.252 82.0533 898.879 80.68C897.643 79.3067 895.24 78.62 891.669 78.62H857.886C854.864 78.62 851.981 78.826 849.234 79.238C846.487 79.5127 844.015 80.268 841.818 81.504C839.758 82.74 838.11 84.6626 836.874 87.2719C835.638 89.7439 835.02 93.1771 835.02 97.5717V114.669H889.609ZM930.564 54.9304C930.564 49.9865 931.457 45.6605 933.242 41.9526C935.027 38.1073 937.362 34.9487 940.246 32.4768C943.13 29.8675 946.357 27.8762 949.928 26.5028C953.498 25.1295 957 24.4429 960.434 24.4429H1017.08V37.4207H960.434C958.648 37.4207 956.726 37.8327 954.666 38.6566C952.743 39.3433 950.958 40.442 949.31 41.9526C947.662 43.3259 946.288 45.1112 945.19 47.3085C944.091 49.5058 943.542 52.0464 943.542 54.9304V85.8299V107.254V138.977C943.542 142.548 944.022 145.432 944.984 147.629C946.082 149.826 947.456 151.543 949.104 152.779C950.752 153.878 952.537 154.633 954.46 155.045C956.52 155.457 958.511 155.663 960.434 155.663H1017.08V168.641H960.434C957 168.641 953.498 168.16 949.928 167.199C946.357 166.1 943.13 164.383 940.246 162.049C937.362 159.714 935.027 156.693 933.242 152.985C931.457 149.14 930.564 144.47 930.564 138.977C930.564 134.994 930.564 131.081 930.564 127.235C930.564 123.39 930.564 120.025 930.564 117.141C930.564 114.12 930.564 111.717 930.564 109.932C930.701 108.009 930.77 107.048 930.77 107.048V85.8299C930.77 85.8299 930.701 85.0059 930.564 83.358C930.564 81.5726 930.564 79.238 930.564 76.3541C930.564 73.4701 930.564 70.1742 930.564 66.4662C930.564 62.7583 930.564 58.913 930.564 54.9304ZM1033.66 145.775V88.5079C1033.66 83.564 1034.41 79.5813 1035.92 76.5601C1037.57 73.5388 1039.5 71.2041 1041.69 69.5562C1044.03 67.9082 1046.43 66.8782 1048.9 66.4662C1051.51 65.9169 1053.85 65.6422 1055.91 65.6422H1103.49C1105.55 65.6422 1107.89 65.9169 1110.5 66.4662C1113.11 66.8782 1115.51 67.9082 1117.71 69.5562C1120.04 71.2041 1121.96 73.5388 1123.47 76.5601C1125.12 79.5813 1125.95 83.564 1125.95 88.5079V145.775C1125.95 150.719 1125.12 154.702 1123.47 157.723C1121.96 160.744 1120.04 163.079 1117.71 164.727C1115.51 166.375 1113.11 167.473 1110.5 168.023C1107.89 168.435 1105.55 168.641 1103.49 168.641H1055.91C1053.85 168.641 1051.51 168.435 1048.9 168.023C1046.43 167.473 1044.03 166.375 1041.69 164.727C1039.5 163.079 1037.57 160.744 1035.92 157.723C1034.41 154.702 1033.66 150.719 1033.66 145.775ZM1046.64 88.5079V145.775C1046.64 149.62 1047.25 152.23 1048.49 153.603C1049.86 154.976 1052.34 155.663 1055.91 155.663H1103.49C1107.06 155.663 1109.47 154.976 1110.7 153.603C1112.08 152.23 1112.76 149.62 1112.76 145.775V88.5079C1112.76 84.6626 1112.08 82.0533 1110.7 80.68C1109.47 79.3067 1107.06 78.62 1103.49 78.62H1055.91C1052.34 78.62 1049.86 79.3067 1048.49 80.68C1047.25 82.0533 1046.64 84.6626 1046.64 88.5079ZM1142.39 65.6422H1155.36V74.7061C1159.07 72.5088 1162.99 70.4488 1167.11 68.5262C1171.36 66.6036 1175.07 65.6422 1178.23 65.6422H1188.32C1191.35 65.6422 1194.71 66.2602 1198.42 67.4962C1202.26 68.7322 1205.35 71.3415 1207.69 75.3241C1211.4 72.9894 1215.45 70.7921 1219.84 68.7322C1224.24 66.6722 1228.08 65.6422 1231.38 65.6422H1241.47C1243.53 65.6422 1245.87 65.9169 1248.47 66.4662C1251.08 67.0155 1253.49 68.1142 1255.68 69.7622C1258.02 71.2728 1259.94 73.5388 1261.45 76.5601C1262.96 79.5813 1263.72 83.564 1263.72 88.5079V168.641H1250.74V88.5079C1250.74 84.7999 1250.05 82.2593 1248.68 80.886C1247.44 79.5127 1245.04 78.826 1241.47 78.826H1231.38C1229.59 78.826 1226.71 79.7873 1222.73 81.71C1218.74 83.6326 1214.76 85.9672 1210.78 88.7139V168.641H1197.59V88.5079C1197.59 84.7999 1196.91 82.2593 1195.53 80.886C1194.3 79.5127 1191.89 78.826 1188.32 78.826H1178.23C1176.31 78.826 1173.08 79.9933 1168.55 82.328C1164.15 84.6626 1159.76 87.2719 1155.36 90.1558V168.641H1142.39V65.6422ZM1293.06 65.6422V74.5001C1296.63 72.3028 1300.4 70.3115 1304.39 68.5262C1308.51 66.6036 1312.14 65.6422 1315.3 65.6422H1348.47C1350.53 65.6422 1352.79 65.9169 1355.27 66.4662C1357.74 66.8782 1360.07 67.9082 1362.27 69.5562C1364.61 71.0668 1366.53 73.3328 1368.04 76.3541C1369.55 79.238 1370.3 83.0833 1370.3 87.8899V143.715C1370.3 148.659 1369.55 152.642 1368.04 155.663C1366.53 158.547 1364.61 160.813 1362.27 162.461C1360.07 163.971 1357.74 165.001 1355.27 165.551C1352.79 165.963 1350.53 166.169 1348.47 166.169H1315.3C1312.14 166.169 1308.51 165.276 1304.39 163.491C1300.4 161.568 1296.63 159.508 1293.06 157.311V209.84H1280.28V65.6422H1293.06ZM1315.3 78.414C1313.52 78.414 1310.43 79.5813 1306.03 81.916C1301.64 84.1133 1297.31 86.6539 1293.06 89.5379V142.273C1295.12 143.646 1297.24 145.02 1299.44 146.393C1301.78 147.766 1303.97 149.002 1306.03 150.101C1308.09 151.062 1309.95 151.886 1311.6 152.573C1313.24 153.122 1314.48 153.397 1315.3 153.397H1348.47C1352.04 153.397 1354.44 152.71 1355.68 151.337C1356.91 149.964 1357.53 147.423 1357.53 143.715V87.8899C1357.53 84.3193 1356.91 81.8473 1355.68 80.474C1354.44 79.1007 1352.04 78.414 1348.47 78.414H1315.3ZM1386.8 65.6422H1399.78V145.775C1399.78 149.483 1400.39 152.024 1401.63 153.397C1403 154.77 1405.48 155.457 1409.05 155.457H1443.04C1443.86 155.457 1445.1 155.182 1446.74 154.633C1448.53 153.946 1450.45 153.054 1452.51 151.955C1454.57 150.856 1456.77 149.62 1459.1 148.247C1461.44 146.874 1463.7 145.5 1465.9 144.127V65.6422H1478.88V168.641H1465.9V159.577C1462.19 161.774 1458.21 163.834 1453.95 165.757C1449.83 167.542 1446.19 168.435 1443.04 168.435H1409.05C1406.99 168.435 1404.65 168.229 1402.04 167.817C1399.57 167.267 1397.17 166.169 1394.83 164.521C1392.64 162.873 1390.71 160.607 1389.06 157.723C1387.55 154.702 1386.8 150.719 1386.8 145.775V65.6422ZM1525.4 65.6422C1522.38 63.0329 1520.11 60.2176 1518.6 57.1964C1517.09 54.1751 1515.99 51.2911 1515.31 48.5445C1514.62 45.3859 1514.28 42.2273 1514.28 39.0686H1527.05C1527.05 41.6779 1527.32 44.2872 1527.87 46.8965C1528.42 48.9565 1529.25 51.1538 1530.34 53.4884C1531.44 55.823 1533.16 57.883 1535.49 59.6683C1537.01 60.9043 1538.79 61.9343 1540.85 62.7583C1543.05 63.4449 1545.24 63.9943 1547.44 64.4062C1549.64 64.8182 1551.77 65.1616 1553.83 65.4362C1555.89 65.5736 1557.74 65.6422 1559.39 65.6422H1563.92V78.62H1527.25C1527.25 81.504 1527.19 85.1433 1527.05 89.5379C1527.05 93.7951 1527.05 98.3271 1527.05 103.134C1527.05 107.803 1527.05 112.404 1527.05 116.935C1527.05 121.467 1527.05 125.244 1527.05 128.265C1527.05 135.132 1527.67 140.419 1528.9 144.127C1530.28 147.835 1531.86 150.582 1533.64 152.367C1535.56 154.015 1537.49 154.976 1539.41 155.251C1541.33 155.525 1542.84 155.663 1543.94 155.663H1563.92V168.641H1543.94C1541.19 168.641 1538.1 168.229 1534.67 167.405C1531.24 166.443 1528.01 164.521 1524.99 161.637C1521.97 158.753 1519.43 154.702 1517.37 149.483C1515.31 144.127 1514.28 137.054 1514.28 128.265V78.62H1495.33V65.6422H1525.4ZM1580.31 127.853C1580.31 122.772 1580.31 117.759 1580.31 112.815C1580.45 107.734 1580.52 102.653 1580.52 97.5717C1580.52 76.2854 1592.47 65.6422 1616.36 65.6422H1650.15C1652.21 65.6422 1654.54 65.9169 1657.15 66.4662C1659.76 66.8782 1662.16 67.9082 1664.36 69.5562C1666.7 71.2041 1668.62 73.5388 1670.13 76.5601C1671.78 79.5813 1672.6 83.564 1672.6 88.5079V105.812C1672.6 107.46 1672.33 109.52 1671.78 111.992C1671.37 114.463 1670.27 116.867 1668.48 119.201C1666.83 121.536 1664.36 123.527 1661.07 125.175C1657.91 126.823 1653.58 127.647 1648.09 127.647L1593.29 127.853C1593.29 134.857 1593.91 140.213 1595.15 143.921C1596.52 147.629 1598.1 150.376 1599.88 152.161C1601.81 153.946 1603.73 154.976 1605.65 155.251C1607.58 155.525 1609.15 155.663 1610.39 155.663H1672.4V168.641H1610.39C1607.64 168.641 1604.49 168.16 1600.91 167.199C1597.48 166.237 1594.19 164.315 1591.03 161.431C1588.01 158.547 1585.46 154.427 1583.4 149.071C1581.34 143.715 1580.31 136.642 1580.31 127.853ZM1648.09 114.669C1650.7 114.669 1652.76 114.463 1654.27 114.051C1655.78 113.502 1656.88 112.815 1657.56 111.992C1658.39 111.168 1658.87 110.275 1659.01 109.314C1659.28 108.215 1659.42 107.048 1659.42 105.812V88.5079C1659.42 84.6626 1658.73 82.0533 1657.36 80.68C1656.12 79.3067 1653.72 78.62 1650.15 78.62H1616.36C1613.34 78.62 1610.46 78.826 1607.71 79.238C1604.97 79.5127 1602.49 80.268 1600.3 81.504C1598.24 82.74 1596.59 84.6626 1595.35 87.2719C1594.12 89.7439 1593.5 93.1771 1593.5 97.5717V114.669H1648.09ZM1689.04 168.641V65.6422H1702.02V73.0581C1705.45 71.1355 1708.96 69.4188 1712.53 67.9082C1716.23 66.3976 1719.46 65.6422 1722.21 65.6422H1739.51V78.62H1722.21C1720.56 78.62 1717.74 79.5813 1713.76 81.504C1709.92 83.4266 1706 85.6926 1702.02 88.3019V168.641H1689.04Z" fill="#FDD400"/>
</svg>
