<svg width="1746" height="209" viewBox="0 0 1746 209" fill="none" xmlns="http://www.w3.org/2000/svg">
<path fill-rule="evenodd" clip-rule="evenodd" d="M65.0802 106.662L184.964 37.4472C172.278 27.4483 156.266 21.4822 138.86 21.4822C97.6932 21.4822 64.3213 54.8541 64.3213 96.0204C64.3213 99.6315 64.5781 103.183 65.0744 106.656L0 144.227L27.3253 191.556L92.1701 154.118C77.8042 142.558 67.8148 125.78 65.0802 106.662ZM212.537 84.6238C209.613 65.5526 199.46 48.8625 184.964 37.438L249.809 0L277.134 47.3287L212.537 84.6238ZM138.86 170.559C121.184 170.559 104.946 164.407 92.1695 154.127L212.534 84.6347C213.103 88.3468 213.398 92.1491 213.398 96.0204C213.398 137.187 180.026 170.559 138.86 170.559Z" fill="white"/>
<path d="M416.209 23.5796H485.424V36.5574H416.209C412.639 36.5574 410.235 37.244 408.999 38.6174C407.763 39.9907 407.145 42.5313 407.145 46.2392V78.1687C407.145 82.7007 407.901 85.6533 409.411 87.0266C411.059 88.3999 413.325 89.0866 416.209 89.0866H458.851C470.661 89.0866 478.695 92.5885 482.952 99.5924C484.738 102.614 485.768 105.841 486.042 109.274C486.317 112.708 486.454 116.003 486.454 119.162V143.264C486.454 150.542 483.982 156.448 479.038 160.979C474.094 165.511 467.709 167.777 459.881 167.777H395.198V154.8H459.881C464.138 154.8 467.434 153.77 469.769 151.71C472.24 149.65 473.476 146.834 473.476 143.264V119.162C473.476 116.003 473.408 113.394 473.27 111.334C473.133 109.137 472.584 107.352 471.622 105.978C470.661 104.605 469.151 103.644 467.091 103.094C465.168 102.408 462.421 102.064 458.851 102.064H416.209C409.205 102.064 403.781 100.004 399.936 95.8845C396.09 91.7645 394.168 85.8593 394.168 78.1687V46.2392C394.168 41.2953 394.923 37.3814 396.434 34.4974C397.944 31.4761 399.798 29.1415 401.996 27.4935C404.33 25.8456 406.734 24.8156 409.205 24.4036C411.815 23.8543 414.149 23.5796 416.209 23.5796ZM515.667 64.779V73.6368C519.238 71.4395 523.014 69.4482 526.997 67.6629C531.117 65.7403 534.756 64.779 537.915 64.779H571.08C573.14 64.779 575.406 65.0536 577.878 65.6029C580.35 66.0149 582.685 67.0449 584.882 68.6929C587.217 70.2035 589.139 72.4695 590.65 75.4908C592.161 78.3747 592.916 82.22 592.916 87.0266V142.852C592.916 147.796 592.161 151.778 590.65 154.8C589.139 157.684 587.217 159.949 584.882 161.597C582.685 163.108 580.35 164.138 577.878 164.687C575.406 165.099 573.14 165.305 571.08 165.305H537.915C534.756 165.305 531.117 164.413 526.997 162.627C523.014 160.705 519.238 158.645 515.667 156.448V208.977H502.895V64.779H515.667ZM537.915 77.5507C536.13 77.5507 533.04 78.7181 528.645 81.0527C524.25 83.25 519.924 85.7906 515.667 88.6746V141.41C517.727 142.783 519.856 144.156 522.053 145.53C524.388 146.903 526.585 148.139 528.645 149.238C530.705 150.199 532.559 151.023 534.207 151.71C535.855 152.259 537.091 152.534 537.915 152.534H571.08C574.651 152.534 577.054 151.847 578.29 150.474C579.526 149.1 580.144 146.56 580.144 142.852V87.0266C580.144 83.456 579.526 80.984 578.29 79.6107C577.054 78.2374 574.651 77.5507 571.08 77.5507H537.915ZM633.924 105.772H688.513V105.566C688.513 98.5624 687.826 93.2065 686.453 89.4986C685.217 85.7906 683.638 83.044 681.715 81.2587C679.93 79.4734 678.076 78.4434 676.153 78.1687C674.231 77.8941 672.72 77.7567 671.621 77.7567H614.354V64.779H671.621C674.368 64.779 677.458 65.2596 680.891 66.2209C684.462 67.0449 687.758 68.8989 690.779 71.7828C693.938 74.6668 696.547 78.7867 698.607 84.1426C700.667 89.4986 701.697 96.6398 701.697 105.566L701.491 167.777L688.513 167.571V158.713C684.805 160.911 680.822 162.971 676.565 164.893C672.445 166.816 668.806 167.777 665.647 167.777H631.658C629.598 167.777 627.263 167.571 624.654 167.159C622.182 166.61 619.779 165.511 617.444 163.863C615.247 162.215 613.324 159.881 611.676 156.86C610.166 153.838 609.41 149.856 609.41 144.912V127.608C609.41 125.96 609.616 123.9 610.028 121.428C610.578 118.956 611.676 116.553 613.324 114.218C615.109 111.884 617.581 109.892 620.74 108.244C624.036 106.596 628.431 105.772 633.924 105.772ZM622.388 127.608V144.912C622.388 148.757 623.006 151.366 624.242 152.74C625.615 154.113 628.087 154.8 631.658 154.8H665.647C667.57 154.8 670.729 153.632 675.123 151.298C679.655 148.826 684.118 146.148 688.513 143.264V118.75H633.924C631.315 118.75 629.255 119.025 627.744 119.574C626.233 119.986 625.066 120.604 624.242 121.428C623.418 122.252 622.869 123.213 622.594 124.312C622.457 125.273 622.388 126.372 622.388 127.608ZM717.937 141.616V90.3226C717.937 85.3786 718.967 81.2587 721.027 77.9627C723.087 74.6668 725.627 72.0575 728.649 70.1349C731.807 68.2122 735.103 66.8389 738.536 66.0149C742.107 65.1909 745.266 64.779 748.012 64.779H805.279V77.7567H748.012C746.914 77.7567 745.403 77.8941 743.48 78.1687C741.558 78.3061 739.635 78.7867 737.712 79.6107C735.927 80.4347 734.348 81.6707 732.974 83.3187C731.601 84.9666 730.915 87.3013 730.915 90.3226V114.218V141.616C730.915 144.362 731.601 146.628 732.974 148.414C734.348 150.062 735.927 151.366 737.712 152.328C739.635 153.289 741.558 153.976 743.48 154.388C745.403 154.662 746.914 154.8 748.012 154.8H805.279V167.777H748.012C745.266 167.777 742.107 167.297 738.536 166.335C735.103 165.374 731.807 163.863 728.649 161.803C725.627 159.606 723.087 156.86 721.027 153.564C718.967 150.268 717.937 146.285 717.937 141.616ZM821.836 126.99C821.836 121.909 821.836 116.896 821.836 111.952C821.974 106.871 822.042 101.79 822.042 96.7084C822.042 75.4221 833.99 64.779 857.886 64.779H891.669C893.729 64.779 896.064 65.0536 898.673 65.6029C901.282 66.0149 903.686 67.0449 905.883 68.6929C908.218 70.3409 910.14 72.6755 911.651 75.6968C913.299 78.7181 914.123 82.7007 914.123 87.6446V104.948C914.123 106.596 913.848 108.656 913.299 111.128C912.887 113.6 911.788 116.003 910.003 118.338C908.355 120.673 905.883 122.664 902.587 124.312C899.428 125.96 895.103 126.784 889.609 126.784L834.814 126.99C834.814 133.994 835.432 139.35 836.668 143.058C838.041 146.766 839.621 149.512 841.406 151.298C843.329 153.083 845.251 154.113 847.174 154.388C849.097 154.662 850.676 154.8 851.912 154.8H913.917V167.777H851.912C849.165 167.777 846.007 167.297 842.436 166.335C839.003 165.374 835.707 163.451 832.548 160.567C829.527 157.684 826.986 153.564 824.926 148.208C822.866 142.852 821.836 135.779 821.836 126.99ZM889.609 113.806C892.219 113.806 894.279 113.6 895.789 113.188C897.3 112.639 898.398 111.952 899.085 111.128C899.909 110.304 900.39 109.412 900.527 108.45C900.802 107.352 900.939 106.184 900.939 104.948V87.6446C900.939 83.7993 900.252 81.19 898.879 79.8167C897.643 78.4434 895.24 77.7567 891.669 77.7567H857.886C854.864 77.7567 851.981 77.9627 849.234 78.3747C846.487 78.6494 844.015 79.4047 841.818 80.6407C839.758 81.8767 838.11 83.7993 836.874 86.4086C835.638 88.8806 835.02 92.3139 835.02 96.7084V113.806H889.609ZM930.564 54.0671C930.564 49.1232 931.457 44.7973 933.242 41.0893C935.027 37.244 937.362 34.0854 940.246 31.6135C943.13 29.0042 946.357 27.0129 949.928 25.6396C953.498 24.2662 957 23.5796 960.434 23.5796H1017.08V36.5574H960.434C958.648 36.5574 956.726 36.9694 954.666 37.7934C952.743 38.48 950.958 39.5787 949.31 41.0893C947.662 42.4626 946.288 44.2479 945.19 46.4452C944.091 48.6425 943.542 51.1832 943.542 54.0671V84.9666V106.39V138.114C943.542 141.684 944.022 144.568 944.984 146.766C946.082 148.963 947.456 150.68 949.104 151.916C950.752 153.014 952.537 153.77 954.46 154.182C956.52 154.594 958.511 154.8 960.434 154.8H1017.08V167.777H960.434C957 167.777 953.498 167.297 949.928 166.335C946.357 165.237 943.13 163.52 940.246 161.185C937.362 158.851 935.027 155.83 933.242 152.122C931.457 148.276 930.564 143.607 930.564 138.114C930.564 134.131 930.564 130.217 930.564 126.372C930.564 122.527 930.564 119.162 930.564 116.278C930.564 113.257 930.564 110.854 930.564 109.068C930.701 107.146 930.77 106.184 930.77 106.184V84.9666C930.77 84.9666 930.701 84.1426 930.564 82.4947C930.564 80.7094 930.564 78.3747 930.564 75.4908C930.564 72.6068 930.564 69.3109 930.564 65.6029C930.564 61.895 930.564 58.0497 930.564 54.0671ZM1033.66 144.912V87.6446C1033.66 82.7007 1034.41 78.7181 1035.92 75.6968C1037.57 72.6755 1039.5 70.3409 1041.69 68.6929C1044.03 67.0449 1046.43 66.0149 1048.9 65.6029C1051.51 65.0536 1053.85 64.779 1055.91 64.779H1103.49C1105.55 64.779 1107.89 65.0536 1110.5 65.6029C1113.11 66.0149 1115.51 67.0449 1117.71 68.6929C1120.04 70.3409 1121.96 72.6755 1123.47 75.6968C1125.12 78.7181 1125.95 82.7007 1125.95 87.6446V144.912C1125.95 149.856 1125.12 153.838 1123.47 156.86C1121.96 159.881 1120.04 162.215 1117.71 163.863C1115.51 165.511 1113.11 166.61 1110.5 167.159C1107.89 167.571 1105.55 167.777 1103.49 167.777H1055.91C1053.85 167.777 1051.51 167.571 1048.9 167.159C1046.43 166.61 1044.03 165.511 1041.69 163.863C1039.5 162.215 1037.57 159.881 1035.92 156.86C1034.41 153.838 1033.66 149.856 1033.66 144.912ZM1046.64 87.6446V144.912C1046.64 148.757 1047.25 151.366 1048.49 152.74C1049.86 154.113 1052.34 154.8 1055.91 154.8H1103.49C1107.06 154.8 1109.47 154.113 1110.7 152.74C1112.08 151.366 1112.76 148.757 1112.76 144.912V87.6446C1112.76 83.7993 1112.08 81.19 1110.7 79.8167C1109.47 78.4434 1107.06 77.7567 1103.49 77.7567H1055.91C1052.34 77.7567 1049.86 78.4434 1048.49 79.8167C1047.25 81.19 1046.64 83.7993 1046.64 87.6446ZM1142.39 64.779H1155.36V73.8428C1159.07 71.6455 1162.99 69.5855 1167.11 67.6629C1171.36 65.7403 1175.07 64.779 1178.23 64.779H1188.32C1191.35 64.779 1194.71 65.3969 1198.42 66.6329C1202.26 67.8689 1205.35 70.4782 1207.69 74.4608C1211.4 72.1262 1215.45 69.9289 1219.84 67.8689C1224.24 65.8089 1228.08 64.779 1231.38 64.779H1241.47C1243.53 64.779 1245.87 65.0536 1248.47 65.6029C1251.08 66.1523 1253.49 67.2509 1255.68 68.8989C1258.02 70.4095 1259.94 72.6755 1261.45 75.6968C1262.96 78.7181 1263.72 82.7007 1263.72 87.6446V167.777H1250.74V87.6446C1250.74 83.9367 1250.05 81.396 1248.68 80.0227C1247.44 78.6494 1245.04 77.9627 1241.47 77.9627H1231.38C1229.59 77.9627 1226.71 78.9241 1222.73 80.8467C1218.74 82.7693 1214.76 85.104 1210.78 87.8506V167.777H1197.59V87.6446C1197.59 83.9367 1196.91 81.396 1195.53 80.0227C1194.3 78.6494 1191.89 77.9627 1188.32 77.9627H1178.23C1176.31 77.9627 1173.08 79.1301 1168.55 81.4647C1164.15 83.7993 1159.76 86.4086 1155.36 89.2926V167.777H1142.39V64.779ZM1293.06 64.779V73.6368C1296.63 71.4395 1300.4 69.4482 1304.39 67.6629C1308.51 65.7403 1312.14 64.779 1315.3 64.779H1348.47C1350.53 64.779 1352.79 65.0536 1355.27 65.6029C1357.74 66.0149 1360.07 67.0449 1362.27 68.6929C1364.61 70.2035 1366.53 72.4695 1368.04 75.4908C1369.55 78.3747 1370.3 82.22 1370.3 87.0266V142.852C1370.3 147.796 1369.55 151.778 1368.04 154.8C1366.53 157.684 1364.61 159.949 1362.27 161.597C1360.07 163.108 1357.74 164.138 1355.27 164.687C1352.79 165.099 1350.53 165.305 1348.47 165.305H1315.3C1312.14 165.305 1308.51 164.413 1304.39 162.627C1300.4 160.705 1296.63 158.645 1293.06 156.448V208.977H1280.28V64.779H1293.06ZM1315.3 77.5507C1313.52 77.5507 1310.43 78.7181 1306.03 81.0527C1301.64 83.25 1297.31 85.7906 1293.06 88.6746V141.41C1295.12 142.783 1297.24 144.156 1299.44 145.53C1301.78 146.903 1303.97 148.139 1306.03 149.238C1308.09 150.199 1309.95 151.023 1311.6 151.71C1313.24 152.259 1314.48 152.534 1315.3 152.534H1348.47C1352.04 152.534 1354.44 151.847 1355.68 150.474C1356.91 149.1 1357.53 146.56 1357.53 142.852V87.0266C1357.53 83.456 1356.91 80.984 1355.68 79.6107C1354.44 78.2374 1352.04 77.5507 1348.47 77.5507H1315.3ZM1386.8 64.779H1399.78V144.912C1399.78 148.62 1400.39 151.16 1401.63 152.534C1403 153.907 1405.48 154.594 1409.05 154.594H1443.04C1443.86 154.594 1445.1 154.319 1446.74 153.77C1448.53 153.083 1450.45 152.19 1452.51 151.092C1454.57 149.993 1456.77 148.757 1459.1 147.384C1461.44 146.01 1463.7 144.637 1465.9 143.264V64.779H1478.88V167.777H1465.9V158.713C1462.19 160.911 1458.21 162.971 1453.95 164.893C1449.83 166.679 1446.19 167.571 1443.04 167.571H1409.05C1406.99 167.571 1404.65 167.365 1402.04 166.953C1399.57 166.404 1397.17 165.305 1394.83 163.657C1392.64 162.009 1390.71 159.743 1389.06 156.86C1387.55 153.838 1386.8 149.856 1386.8 144.912V64.779ZM1525.4 64.779C1522.38 62.1697 1520.11 59.3544 1518.6 56.3331C1517.09 53.3118 1515.99 50.4278 1515.31 47.6812C1514.62 44.5226 1514.28 41.364 1514.28 38.2054H1527.05C1527.05 40.8147 1527.32 43.424 1527.87 46.0332C1528.42 48.0932 1529.25 50.2905 1530.34 52.6251C1531.44 54.9598 1533.16 57.0197 1535.49 58.805C1537.01 60.041 1538.79 61.071 1540.85 61.895C1543.05 62.5817 1545.24 63.131 1547.44 63.543C1549.64 63.955 1551.77 64.2983 1553.83 64.5729C1555.89 64.7103 1557.74 64.779 1559.39 64.779H1563.92V77.7567H1527.25C1527.25 80.6407 1527.19 84.28 1527.05 88.6746C1527.05 92.9318 1527.05 97.4638 1527.05 102.27C1527.05 106.94 1527.05 111.54 1527.05 116.072C1527.05 120.604 1527.05 124.381 1527.05 127.402C1527.05 134.269 1527.67 139.556 1528.9 143.264C1530.28 146.972 1531.86 149.718 1533.64 151.504C1535.56 153.152 1537.49 154.113 1539.41 154.388C1541.33 154.662 1542.84 154.8 1543.94 154.8H1563.92V167.777H1543.94C1541.19 167.777 1538.1 167.365 1534.67 166.541C1531.24 165.58 1528.01 163.657 1524.99 160.773C1521.97 157.889 1519.43 153.838 1517.37 148.62C1515.31 143.264 1514.28 136.191 1514.28 127.402V77.7567H1495.33V64.779H1525.4ZM1580.31 126.99C1580.31 121.909 1580.31 116.896 1580.31 111.952C1580.45 106.871 1580.52 101.79 1580.52 96.7084C1580.52 75.4221 1592.47 64.779 1616.36 64.779H1650.15C1652.21 64.779 1654.54 65.0536 1657.15 65.6029C1659.76 66.0149 1662.16 67.0449 1664.36 68.6929C1666.7 70.3409 1668.62 72.6755 1670.13 75.6968C1671.78 78.7181 1672.6 82.7007 1672.6 87.6446V104.948C1672.6 106.596 1672.33 108.656 1671.78 111.128C1671.37 113.6 1670.27 116.003 1668.48 118.338C1666.83 120.673 1664.36 122.664 1661.07 124.312C1657.91 125.96 1653.58 126.784 1648.09 126.784L1593.29 126.99C1593.29 133.994 1593.91 139.35 1595.15 143.058C1596.52 146.766 1598.1 149.512 1599.88 151.298C1601.81 153.083 1603.73 154.113 1605.65 154.388C1607.58 154.662 1609.15 154.8 1610.39 154.8H1672.4V167.777H1610.39C1607.64 167.777 1604.49 167.297 1600.91 166.335C1597.48 165.374 1594.19 163.451 1591.03 160.567C1588.01 157.684 1585.46 153.564 1583.4 148.208C1581.34 142.852 1580.31 135.779 1580.31 126.99ZM1648.09 113.806C1650.7 113.806 1652.76 113.6 1654.27 113.188C1655.78 112.639 1656.88 111.952 1657.56 111.128C1658.39 110.304 1658.87 109.412 1659.01 108.45C1659.28 107.352 1659.42 106.184 1659.42 104.948V87.6446C1659.42 83.7993 1658.73 81.19 1657.36 79.8167C1656.12 78.4434 1653.72 77.7567 1650.15 77.7567H1616.36C1613.34 77.7567 1610.46 77.9627 1607.71 78.3747C1604.97 78.6494 1602.49 79.4047 1600.3 80.6407C1598.24 81.8767 1596.59 83.7993 1595.35 86.4086C1594.12 88.8806 1593.5 92.3139 1593.5 96.7084V113.806H1648.09ZM1689.04 167.777V64.779H1702.02V72.1948C1705.45 70.2722 1708.96 68.5556 1712.53 67.0449C1716.23 65.5343 1719.46 64.779 1722.21 64.779H1739.51V77.7567H1722.21C1720.56 77.7567 1717.74 78.7181 1713.76 80.6407C1709.92 82.5633 1706 84.8293 1702.02 87.4386V167.777H1689.04Z" fill="white"/>
</svg>
