<svg width="501" height="500" viewBox="0 0 501 500" fill="none" xmlns="http://www.w3.org/2000/svg">
<g clip-path="url(#clip0_1460_165)">
<path fill-rule="evenodd" clip-rule="evenodd" d="M117.985 269.145L334.275 144.27C311.388 126.23 282.499 115.467 251.096 115.467C176.824 115.467 116.615 175.676 116.615 249.947C116.615 256.46 117.078 262.865 117.973 269.131L0.568115 336.915L49.8678 422.305L166.86 354.759C140.942 333.905 122.92 303.636 117.985 269.145ZM384.023 229.38C378.748 194.972 360.431 164.86 334.277 144.248L451.268 76.7031L500.568 162.093L384.023 229.38ZM251.096 384.427C219.206 384.427 189.909 373.328 166.857 354.781L384.017 229.404C385.044 236.102 385.576 242.962 385.576 249.947C385.576 324.219 325.367 384.427 251.096 384.427Z" fill="white"/>
</g>
<defs>
<clipPath id="clip0_1460_165">
<rect width="500" height="500" fill="white" transform="translate(0.568115)"/>
</clipPath>
</defs>
</svg>
