<svg width="501" height="83" viewBox="0 0 501 83" fill="none" xmlns="http://www.w3.org/2000/svg">
<path fill-rule="evenodd" clip-rule="evenodd" d="M25.8442 41.9675L72.8363 14.8367C67.8638 10.9174 61.5872 8.57882 54.7645 8.57882C38.628 8.57882 25.5468 21.66 25.5468 37.7965C25.5468 39.212 25.6474 40.604 25.842 41.9657L0.333984 56.6928L11.045 75.2448L36.4631 60.5697C30.8318 56.0385 26.9161 49.4617 25.8442 41.9675ZM83.6448 33.3293C82.4986 25.8537 78.519 19.3115 72.8368 14.8333L98.2547 0.158203L108.966 18.7102L83.6448 33.3293ZM54.7645 67.0142C47.8361 67.0142 41.4709 64.6026 36.4625 60.5731L83.6434 33.3332C83.8665 34.7884 83.9822 36.2789 83.9822 37.7965C83.9822 53.933 70.901 67.0142 54.7645 67.0142Z" fill="black"/>
<path d="M163.481 9.67813H190.612V14.7652H163.481C162.081 14.7652 161.139 15.0344 160.655 15.5727C160.17 16.111 159.928 17.1069 159.928 18.5603V31.0761C159.928 32.8526 160.224 34.01 160.816 34.5483C161.462 35.0866 162.35 35.3557 163.481 35.3557H180.195C184.825 35.3557 187.974 36.7284 189.643 39.4738C190.343 40.6581 190.746 41.9232 190.854 43.269C190.962 44.6148 191.016 45.9067 191.016 47.1448V56.5923C191.016 59.4453 190.047 61.7601 188.109 63.5365C186.171 65.313 183.668 66.2012 180.599 66.2012H155.245V61.1141H180.599C182.268 61.1141 183.56 60.7104 184.475 59.9029C185.444 59.0954 185.929 57.9919 185.929 56.5923V47.1448C185.929 45.9067 185.902 44.8839 185.848 44.0764C185.794 43.2151 185.579 42.5153 185.202 41.977C184.825 41.4387 184.233 41.0619 183.425 40.8466C182.672 40.5774 181.595 40.4428 180.195 40.4428H163.481C160.735 40.4428 158.609 39.6353 157.102 38.0204C155.595 36.4055 154.841 34.0907 154.841 31.0761V18.5603C154.841 16.6224 155.137 15.0882 155.729 13.9577C156.321 12.7734 157.048 11.8583 157.909 11.2123C158.824 10.5664 159.766 10.1626 160.735 10.0011C161.758 9.7858 162.673 9.67813 163.481 9.67813ZM202.467 25.8276V29.2997C203.866 28.4384 205.347 27.6578 206.908 26.958C208.523 26.2044 209.949 25.8276 211.187 25.8276H224.188C224.995 25.8276 225.883 25.9352 226.852 26.1506C227.821 26.3121 228.736 26.7158 229.598 27.3618C230.513 27.9539 231.266 28.8421 231.859 30.0264C232.451 31.1569 232.747 32.6642 232.747 34.5483V56.4308C232.747 58.3687 232.451 59.9298 231.859 61.1141C231.266 62.2446 230.513 63.1328 229.598 63.7788C228.736 64.3709 227.821 64.7746 226.852 64.99C225.883 65.1515 224.995 65.2322 224.188 65.2322H211.187C209.949 65.2322 208.523 64.8823 206.908 64.1825C205.347 63.4289 203.866 62.6214 202.467 61.7601V82.3506H197.46V25.8276H202.467ZM211.187 30.8339C210.487 30.8339 209.276 31.2915 207.554 32.2066C205.831 33.0679 204.135 34.0638 202.467 35.1942V55.8655C203.274 56.4038 204.108 56.9422 204.97 57.4805C205.885 58.0188 206.746 58.5033 207.554 58.9339C208.361 59.3107 209.088 59.6337 209.734 59.9029C210.38 60.1182 210.864 60.2259 211.187 60.2259H224.188C225.587 60.2259 226.529 59.9567 227.014 59.4184C227.498 58.8801 227.74 57.8842 227.74 56.4308V34.5483C227.74 33.1487 227.498 32.1797 227.014 31.6414C226.529 31.1031 225.587 30.8339 224.188 30.8339H211.187ZM248.821 41.8963H270.219V41.8155C270.219 39.0701 269.95 36.9707 269.412 35.5172C268.927 34.0638 268.308 32.9872 267.554 32.2873C266.855 31.5875 266.128 31.1838 265.374 31.0761C264.621 30.9685 264.029 30.9146 263.598 30.9146H241.15V25.8276H263.598C264.675 25.8276 265.886 26.016 267.232 26.3928C268.631 26.7158 269.923 27.4425 271.107 28.573C272.345 29.7034 273.368 31.3184 274.176 33.4178C274.983 35.5172 275.387 38.3165 275.387 41.8155L275.306 66.2012L270.219 66.1204V62.6483C268.766 63.5096 267.205 64.3171 265.536 65.0707C263.921 65.8244 262.494 66.2012 261.256 66.2012H247.933C247.125 66.2012 246.21 66.1204 245.188 65.9589C244.219 65.7436 243.277 65.313 242.361 64.667C241.5 64.021 240.746 63.1059 240.1 61.9216C239.508 60.7373 239.212 59.1762 239.212 57.2382V50.4555C239.212 49.8095 239.293 49.002 239.454 48.0331C239.67 47.0641 240.1 46.122 240.746 45.2069C241.446 44.2918 242.415 43.5112 243.653 42.8652C244.945 42.2193 246.668 41.8963 248.821 41.8963ZM244.299 50.4555V57.2382C244.299 58.7455 244.542 59.7683 245.026 60.3066C245.564 60.8449 246.533 61.1141 247.933 61.1141H261.256C262.01 61.1141 263.248 60.6565 264.971 59.7414C266.747 58.7724 268.497 57.7227 270.219 56.5923V46.9833H248.821C247.798 46.9833 246.991 47.091 246.399 47.3063C245.807 47.4678 245.349 47.7101 245.026 48.0331C244.703 48.356 244.488 48.7329 244.38 49.1635C244.326 49.5403 244.299 49.971 244.299 50.4555ZM281.753 55.9463V35.8402C281.753 33.9023 282.156 32.2873 282.964 30.9954C283.771 29.7034 284.767 28.6806 285.952 27.927C287.19 27.1734 288.482 26.635 289.827 26.3121C291.227 25.9891 292.465 25.8276 293.542 25.8276H315.99V30.9146H293.542C293.111 30.9146 292.519 30.9685 291.765 31.0761C291.012 31.13 290.258 31.3184 289.504 31.6414C288.805 31.9644 288.186 32.4488 287.647 33.0948C287.109 33.7408 286.84 34.6559 286.84 35.8402V45.2069V55.9463C286.84 57.0229 287.109 57.9111 287.647 58.6109C288.186 59.2569 288.805 59.7683 289.504 60.1451C290.258 60.522 291.012 60.7911 291.765 60.9526C292.519 61.0603 293.111 61.1141 293.542 61.1141H315.99V66.2012H293.542C292.465 66.2012 291.227 66.0128 289.827 65.6359C288.482 65.2591 287.19 64.667 285.952 63.8595C284.767 62.9982 283.771 61.9216 282.964 60.6296C282.156 59.3377 281.753 57.7765 281.753 55.9463ZM322.48 50.2132C322.48 48.2215 322.48 46.2566 322.48 44.3187C322.533 42.3269 322.56 40.3352 322.56 38.3434C322.56 29.9995 327.244 25.8276 336.61 25.8276H349.853C350.66 25.8276 351.576 25.9352 352.598 26.1506C353.621 26.3121 354.563 26.7158 355.424 27.3618C356.34 28.0077 357.093 28.9229 357.685 30.1072C358.331 31.2915 358.654 32.8526 358.654 34.7905V41.5733C358.654 42.2193 358.547 43.0267 358.331 43.9957C358.17 44.9647 357.739 45.9067 357.039 46.8218C356.393 47.737 355.424 48.5175 354.133 49.1635C352.894 49.8095 351.199 50.1325 349.045 50.1325L327.567 50.2132C327.567 52.9586 327.809 55.0581 328.293 56.5115C328.832 57.965 329.451 59.0416 330.151 59.7414C330.904 60.4412 331.658 60.8449 332.412 60.9526C333.165 61.0603 333.784 61.1141 334.269 61.1141H358.574V66.2012H334.269C333.192 66.2012 331.954 66.0128 330.554 65.6359C329.209 65.2591 327.917 64.5055 326.678 63.375C325.494 62.2446 324.498 60.6296 323.691 58.5302C322.883 56.4308 322.48 53.6584 322.48 50.2132ZM349.045 45.0454C350.068 45.0454 350.876 44.9647 351.468 44.8032C352.06 44.5878 352.491 44.3187 352.76 43.9957C353.083 43.6727 353.271 43.3228 353.325 42.946C353.433 42.5153 353.487 42.0578 353.487 41.5733V34.7905C353.487 33.2832 353.217 32.2604 352.679 31.7221C352.195 31.1838 351.253 30.9146 349.853 30.9146H336.61C335.426 30.9146 334.296 30.9954 333.219 31.1569C332.142 31.2646 331.173 31.5606 330.312 32.0451C329.505 32.5296 328.859 33.2832 328.374 34.306C327.89 35.275 327.647 36.6208 327.647 38.3434V45.0454H349.045ZM365.099 55.9463V35.8402C365.099 33.9023 365.503 32.2873 366.31 30.9954C367.118 29.7034 368.114 28.6806 369.298 27.927C370.536 27.1734 371.828 26.635 373.174 26.3121C374.573 25.9891 375.811 25.8276 376.888 25.8276H399.336V30.9146H376.888C376.457 30.9146 375.865 30.9685 375.112 31.0761C374.358 31.13 373.604 31.3184 372.851 31.6414C372.151 31.9644 371.532 32.4488 370.994 33.0948C370.455 33.7408 370.186 34.6559 370.186 35.8402V45.2069V55.9463C370.186 57.0229 370.455 57.9111 370.994 58.6109C371.532 59.2569 372.151 59.7683 372.851 60.1451C373.604 60.522 374.358 60.7911 375.112 60.9526C375.865 61.0603 376.457 61.1141 376.888 61.1141H399.336V66.2012H376.888C375.811 66.2012 374.573 66.0128 373.174 65.6359C371.828 65.2591 370.536 64.667 369.298 63.8595C368.114 62.9982 367.118 61.9216 366.31 60.6296C365.503 59.3377 365.099 57.7765 365.099 55.9463ZM405.826 57.2382V34.7905C405.826 32.8526 406.122 31.2915 406.714 30.1072C407.36 28.9229 408.114 28.0077 408.975 27.3618C409.89 26.7158 410.832 26.3121 411.801 26.1506C412.824 25.9352 413.739 25.8276 414.547 25.8276H433.199C434.007 25.8276 434.922 25.9352 435.945 26.1506C436.967 26.3121 437.909 26.7158 438.771 27.3618C439.686 28.0077 440.439 28.9229 441.032 30.1072C441.678 31.2915 442.001 32.8526 442.001 34.7905V57.2382C442.001 59.1762 441.678 60.7373 441.032 61.9216C440.439 63.1059 439.686 64.021 438.771 64.667C437.909 65.313 436.967 65.7436 435.945 65.9589C434.922 66.1204 434.007 66.2012 433.199 66.2012H414.547C413.739 66.2012 412.824 66.1204 411.801 65.9589C410.832 65.7436 409.89 65.313 408.975 64.667C408.114 64.021 407.36 63.1059 406.714 61.9216C406.122 60.7373 405.826 59.1762 405.826 57.2382ZM410.913 34.7905V57.2382C410.913 58.7455 411.155 59.7683 411.64 60.3066C412.178 60.8449 413.147 61.1141 414.547 61.1141H433.199C434.599 61.1141 435.541 60.8449 436.025 60.3066C436.564 59.7683 436.833 58.7455 436.833 57.2382V34.7905C436.833 33.2832 436.564 32.2604 436.025 31.7221C435.541 31.1838 434.599 30.9146 433.199 30.9146H414.547C413.147 30.9146 412.178 31.1838 411.64 31.7221C411.155 32.2604 410.913 33.2832 410.913 34.7905ZM449.253 25.8276H454.34V66.2012H449.253V25.8276ZM449.253 20.0945V14.9267H454.34V20.0945H449.253ZM461.573 25.8276H466.66V29.3804C468.113 28.5191 469.648 27.7117 471.263 26.958C472.931 26.2044 474.385 25.8276 475.623 25.8276H488.946C489.754 25.8276 490.669 25.9352 491.692 26.1506C492.714 26.3659 493.657 26.7965 494.518 27.4425C495.433 28.0347 496.187 28.9229 496.779 30.1072C497.371 31.2915 497.667 32.8526 497.667 34.7905V66.2012H492.58V34.7905C492.58 33.3371 492.311 32.3412 491.772 31.8029C491.288 31.2646 490.346 30.9954 488.946 30.9954H475.623C474.869 30.9954 473.604 31.453 471.828 32.3681C470.105 33.2832 468.383 34.306 466.66 35.4365V66.2012H461.573V25.8276Z" fill="black"/>
</svg>
