<svg width="501" height="83" viewBox="0 0 501 83" fill="none" xmlns="http://www.w3.org/2000/svg">
<path fill-rule="evenodd" clip-rule="evenodd" d="M25.8442 42.2947L72.8363 15.1638C67.8638 11.2445 61.5872 8.90597 54.7645 8.90597C38.628 8.90597 25.5468 21.9872 25.5468 38.1237C25.5468 39.5392 25.6474 40.9312 25.842 42.2929L0.333984 57.0199L11.045 75.572L36.4631 60.8969C30.8318 56.3656 26.9161 49.7888 25.8442 42.2947ZM83.6448 33.6564C82.4986 26.1809 78.519 19.6386 72.8368 15.1604L98.2547 0.485352L108.966 19.0374L83.6448 33.6564ZM54.7645 67.3414C47.8361 67.3414 41.4709 64.9298 36.4625 60.9003L83.6434 33.6604C83.8665 35.1155 83.9822 36.6061 83.9822 38.1237C83.9822 54.2602 70.901 67.3414 54.7645 67.3414Z" fill="white"/>
<path d="M163.481 10.0053H190.612V15.0924H163.481C162.081 15.0924 161.139 15.3615 160.655 15.8998C160.17 16.4381 159.928 17.434 159.928 18.8875V31.4033C159.928 33.1797 160.224 34.3371 160.816 34.8754C161.462 35.4137 162.35 35.6829 163.481 35.6829H180.195C184.825 35.6829 187.974 37.0556 189.643 39.801C190.343 40.9853 190.746 42.2503 190.854 43.5961C190.962 44.9419 191.016 46.2339 191.016 47.472V56.9194C191.016 59.7725 190.047 62.0872 188.109 63.8637C186.171 65.6401 183.668 66.5283 180.599 66.5283H155.245V61.4412H180.599C182.268 61.4412 183.56 61.0375 184.475 60.23C185.444 59.4226 185.929 58.319 185.929 56.9194V47.472C185.929 46.2339 185.902 45.2111 185.848 44.4036C185.794 43.5423 185.579 42.8425 185.202 42.3042C184.825 41.7658 184.233 41.389 183.425 41.1737C182.672 40.9045 181.595 40.77 180.195 40.77H163.481C160.735 40.77 158.609 39.9625 157.102 38.3475C155.595 36.7326 154.841 34.4179 154.841 31.4033V18.8875C154.841 16.9495 155.137 15.4153 155.729 14.2849C156.321 13.1006 157.048 12.1855 157.909 11.5395C158.824 10.8935 159.766 10.4898 160.735 10.3283C161.758 10.1129 162.673 10.0053 163.481 10.0053ZM202.467 26.1547V29.6269C203.866 28.7655 205.347 27.985 206.908 27.2852C208.523 26.5315 209.949 26.1547 211.187 26.1547H224.188C224.995 26.1547 225.883 26.2624 226.852 26.4777C227.821 26.6392 228.736 27.0429 229.598 27.6889C230.513 28.2811 231.266 29.1693 231.859 30.3536C232.451 31.484 232.747 32.9913 232.747 34.8754V56.7579C232.747 58.6958 232.451 60.257 231.859 61.4412C231.266 62.5717 230.513 63.4599 229.598 64.1059C228.736 64.6981 227.821 65.1018 226.852 65.3171C225.883 65.4786 224.995 65.5594 224.188 65.5594H211.187C209.949 65.5594 208.523 65.2094 206.908 64.5096C205.347 63.756 203.866 62.9485 202.467 62.0872V82.6778H197.46V26.1547H202.467ZM211.187 31.161C210.487 31.161 209.276 31.6186 207.554 32.5337C205.831 33.3951 204.135 34.3909 202.467 35.5214V56.1927C203.274 56.731 204.108 57.2693 204.97 57.8076C205.885 58.3459 206.746 58.8304 207.554 59.2611C208.361 59.6379 209.088 59.9609 209.734 60.23C210.38 60.4454 210.864 60.553 211.187 60.553H224.188C225.587 60.553 226.529 60.2839 227.014 59.7456C227.498 59.2072 227.74 58.2114 227.74 56.7579V34.8754C227.74 33.4758 227.498 32.5068 227.014 31.9685C226.529 31.4302 225.587 31.161 224.188 31.161H211.187ZM248.821 42.2234H270.219V42.1427C270.219 39.3973 269.95 37.2978 269.412 35.8444C268.927 34.3909 268.308 33.3143 267.554 32.6145C266.855 31.9147 266.128 31.511 265.374 31.4033C264.621 31.2956 264.029 31.2418 263.598 31.2418H241.15V26.1547H263.598C264.675 26.1547 265.886 26.3431 267.232 26.72C268.631 27.0429 269.923 27.7697 271.107 28.9001C272.345 30.0306 273.368 31.6455 274.176 33.745C274.983 35.8444 275.387 38.6436 275.387 42.1427L275.306 66.5283L270.219 66.4476V62.9754C268.766 63.8367 267.205 64.6442 265.536 65.3979C263.921 66.1515 262.494 66.5283 261.256 66.5283H247.933C247.125 66.5283 246.21 66.4476 245.188 66.2861C244.219 66.0708 243.277 65.6401 242.361 64.9941C241.5 64.3481 240.746 63.433 240.1 62.2487C239.508 61.0644 239.212 59.5033 239.212 57.5654V50.7826C239.212 50.1366 239.293 49.3292 239.454 48.3602C239.67 47.3912 240.1 46.4492 240.746 45.534C241.446 44.6189 242.415 43.8384 243.653 43.1924C244.945 42.5464 246.668 42.2234 248.821 42.2234ZM244.299 50.7826V57.5654C244.299 59.0727 244.542 60.0955 245.026 60.6338C245.564 61.1721 246.533 61.4412 247.933 61.4412H261.256C262.01 61.4412 263.248 60.9837 264.971 60.0685C266.747 59.0996 268.497 58.0499 270.219 56.9194V47.3105H248.821C247.798 47.3105 246.991 47.4182 246.399 47.6335C245.807 47.795 245.349 48.0372 245.026 48.3602C244.703 48.6832 244.488 49.06 244.38 49.4907C244.326 49.8675 244.299 50.2981 244.299 50.7826ZM281.753 56.2734V36.1674C281.753 34.2294 282.156 32.6145 282.964 31.3225C283.771 30.0306 284.767 29.0078 285.952 28.2541C287.19 27.5005 288.482 26.9622 289.827 26.6392C291.227 26.3162 292.465 26.1547 293.542 26.1547H315.99V31.2418H293.542C293.111 31.2418 292.519 31.2956 291.765 31.4033C291.012 31.4571 290.258 31.6455 289.504 31.9685C288.805 32.2915 288.186 32.776 287.647 33.422C287.109 34.0679 286.84 34.9831 286.84 36.1674V45.534V56.2734C286.84 57.3501 287.109 58.2383 287.647 58.9381C288.186 59.5841 288.805 60.0955 289.504 60.4723C290.258 60.8491 291.012 61.1183 291.765 61.2798C292.519 61.3874 293.111 61.4412 293.542 61.4412H315.99V66.5283H293.542C292.465 66.5283 291.227 66.3399 289.827 65.9631C288.482 65.5863 287.19 64.9941 285.952 64.1867C284.767 63.3253 283.771 62.2487 282.964 60.9568C282.156 59.6648 281.753 58.1037 281.753 56.2734ZM322.48 50.5404C322.48 48.5486 322.48 46.5838 322.48 44.6458C322.533 42.6541 322.56 40.6623 322.56 38.6705C322.56 30.3267 327.244 26.1547 336.61 26.1547H349.853C350.66 26.1547 351.576 26.2624 352.598 26.4777C353.621 26.6392 354.563 27.0429 355.424 27.6889C356.34 28.3349 357.093 29.25 357.685 30.4343C358.331 31.6186 358.654 33.1797 358.654 35.1177V41.9004C358.654 42.5464 358.547 43.3539 358.331 44.3228C358.17 45.2918 357.739 46.2339 357.039 47.149C356.393 48.0641 355.424 48.8447 354.133 49.4907C352.894 50.1366 351.199 50.4596 349.045 50.4596L327.567 50.5404C327.567 53.2858 327.809 55.3852 328.293 56.8387C328.832 58.2921 329.451 59.3687 330.151 60.0685C330.904 60.7684 331.658 61.1721 332.412 61.2798C333.165 61.3874 333.784 61.4412 334.269 61.4412H358.574V66.5283H334.269C333.192 66.5283 331.954 66.3399 330.554 65.9631C329.209 65.5863 327.917 64.8326 326.678 63.7022C325.494 62.5717 324.498 60.9568 323.691 58.8573C322.883 56.7579 322.48 53.9856 322.48 50.5404ZM349.045 45.3726C350.068 45.3726 350.876 45.2918 351.468 45.1303C352.06 44.915 352.491 44.6458 352.76 44.3228C353.083 43.9999 353.271 43.6499 353.325 43.2731C353.433 42.8425 353.487 42.3849 353.487 41.9004V35.1177C353.487 33.6104 353.217 32.5876 352.679 32.0493C352.195 31.511 351.253 31.2418 349.853 31.2418H336.61C335.426 31.2418 334.296 31.3225 333.219 31.484C332.142 31.5917 331.173 31.8878 330.312 32.3723C329.505 32.8567 328.859 33.6104 328.374 34.6332C327.89 35.6021 327.647 36.9479 327.647 38.6705V45.3726H349.045ZM365.099 56.2734V36.1674C365.099 34.2294 365.503 32.6145 366.31 31.3225C367.118 30.0306 368.114 29.0078 369.298 28.2541C370.536 27.5005 371.828 26.9622 373.174 26.6392C374.573 26.3162 375.811 26.1547 376.888 26.1547H399.336V31.2418H376.888C376.457 31.2418 375.865 31.2956 375.112 31.4033C374.358 31.4571 373.604 31.6455 372.851 31.9685C372.151 32.2915 371.532 32.776 370.994 33.422C370.455 34.0679 370.186 34.9831 370.186 36.1674V45.534V56.2734C370.186 57.3501 370.455 58.2383 370.994 58.9381C371.532 59.5841 372.151 60.0955 372.851 60.4723C373.604 60.8491 374.358 61.1183 375.112 61.2798C375.865 61.3874 376.457 61.4412 376.888 61.4412H399.336V66.5283H376.888C375.811 66.5283 374.573 66.3399 373.174 65.9631C371.828 65.5863 370.536 64.9941 369.298 64.1867C368.114 63.3253 367.118 62.2487 366.31 60.9568C365.503 59.6648 365.099 58.1037 365.099 56.2734ZM405.826 57.5654V35.1177C405.826 33.1797 406.122 31.6186 406.714 30.4343C407.36 29.25 408.114 28.3349 408.975 27.6889C409.89 27.0429 410.832 26.6392 411.801 26.4777C412.824 26.2624 413.739 26.1547 414.547 26.1547H433.199C434.007 26.1547 434.922 26.2624 435.945 26.4777C436.967 26.6392 437.909 27.0429 438.771 27.6889C439.686 28.3349 440.439 29.25 441.032 30.4343C441.678 31.6186 442.001 33.1797 442.001 35.1177V57.5654C442.001 59.5033 441.678 61.0644 441.032 62.2487C440.439 63.433 439.686 64.3481 438.771 64.9941C437.909 65.6401 436.967 66.0708 435.945 66.2861C434.922 66.4476 434.007 66.5283 433.199 66.5283H414.547C413.739 66.5283 412.824 66.4476 411.801 66.2861C410.832 66.0708 409.89 65.6401 408.975 64.9941C408.114 64.3481 407.36 63.433 406.714 62.2487C406.122 61.0644 405.826 59.5033 405.826 57.5654ZM410.913 35.1177V57.5654C410.913 59.0727 411.155 60.0955 411.64 60.6338C412.178 61.1721 413.147 61.4412 414.547 61.4412H433.199C434.599 61.4412 435.541 61.1721 436.025 60.6338C436.564 60.0955 436.833 59.0727 436.833 57.5654V35.1177C436.833 33.6104 436.564 32.5876 436.025 32.0493C435.541 31.511 434.599 31.2418 433.199 31.2418H414.547C413.147 31.2418 412.178 31.511 411.64 32.0493C411.155 32.5876 410.913 33.6104 410.913 35.1177ZM449.253 26.1547H454.34V66.5283H449.253V26.1547ZM449.253 20.4217V15.2538H454.34V20.4217H449.253ZM461.573 26.1547H466.66V29.7076C468.113 28.8463 469.648 28.0388 471.263 27.2852C472.931 26.5315 474.385 26.1547 475.623 26.1547H488.946C489.754 26.1547 490.669 26.2624 491.692 26.4777C492.714 26.693 493.657 27.1237 494.518 27.7697C495.433 28.3618 496.187 29.25 496.779 30.4343C497.371 31.6186 497.667 33.1797 497.667 35.1177V66.5283H492.58V35.1177C492.58 33.6642 492.311 32.6683 491.772 32.13C491.288 31.5917 490.346 31.3225 488.946 31.3225H475.623C474.869 31.3225 473.604 31.7801 471.828 32.6952C470.105 33.6104 468.383 34.6332 466.66 35.7636V66.5283H461.573V26.1547Z" fill="white"/>
</svg>
