<svg width="501" height="83" viewBox="0 0 501 83" fill="none" xmlns="http://www.w3.org/2000/svg">
<path fill-rule="evenodd" clip-rule="evenodd" d="M25.8443 41.8093L72.8363 14.6785C67.8638 10.7592 61.5873 8.42062 54.7645 8.42062C38.628 8.42062 25.5468 21.5018 25.5468 37.6383C25.5468 39.0538 25.6475 40.4458 25.842 41.8075L0.333984 56.5346L11.045 75.0866L36.4631 60.4115C30.8318 55.8803 26.9161 49.3035 25.8443 41.8093ZM83.6449 33.1711C82.4986 25.6955 78.519 19.1532 72.8368 14.675L98.2547 0L108.966 18.552L83.6449 33.1711ZM54.7645 66.856C47.8361 66.856 41.4709 64.4444 36.4626 60.4149L83.6435 33.175C83.8665 34.6302 83.9822 36.1207 83.9822 37.6383C83.9822 53.7748 70.901 66.856 54.7645 66.856Z" fill="#FDD400"/>
<path d="M163.481 9.51993H190.612V14.607H163.481C162.081 14.607 161.139 14.8762 160.655 15.4145C160.17 15.9528 159.928 16.9487 159.928 18.4021V30.9179C159.928 32.6944 160.224 33.8518 160.816 34.3901C161.462 34.9284 162.35 35.1975 163.481 35.1975H180.195C184.825 35.1975 187.974 36.5702 189.643 39.3156C190.343 40.4999 190.746 41.765 190.854 43.1108C190.962 44.4566 191.016 45.7485 191.016 46.9866V56.4341C191.016 59.2871 190.047 61.6019 188.109 63.3783C186.171 65.1547 183.668 66.043 180.599 66.043H155.245V60.9559H180.599C182.268 60.9559 183.56 60.5522 184.475 59.7447C185.444 58.9372 185.929 57.8337 185.929 56.4341V46.9866C185.929 45.7485 185.902 44.7257 185.848 43.9182C185.794 43.0569 185.579 42.3571 185.202 41.8188C184.825 41.2805 184.233 40.9037 183.425 40.6883C182.672 40.4192 181.595 40.2846 180.195 40.2846H163.481C160.735 40.2846 158.609 39.4771 157.102 37.8622C155.595 36.2473 154.841 33.9325 154.841 30.9179V18.4021C154.841 16.4642 155.137 14.93 155.729 13.7995C156.321 12.6152 157.048 11.7001 157.909 11.0541C158.824 10.4082 159.766 10.0044 160.735 9.84292C161.758 9.62759 162.673 9.51993 163.481 9.51993ZM202.467 25.6694V29.1415C203.866 28.2802 205.347 27.4996 206.908 26.7998C208.523 26.0462 209.949 25.6694 211.187 25.6694H224.188C224.995 25.6694 225.883 25.777 226.852 25.9924C227.821 26.1539 228.736 26.5576 229.598 27.2036C230.513 27.7957 231.266 28.6839 231.859 29.8682C232.451 30.9987 232.747 32.506 232.747 34.3901V56.2726C232.747 58.2105 232.451 59.7716 231.859 60.9559C231.266 62.0864 230.513 62.9746 229.598 63.6206C228.736 64.2127 227.821 64.6164 226.852 64.8318C225.883 64.9933 224.995 65.074 224.188 65.074H211.187C209.949 65.074 208.523 64.7241 206.908 64.0243C205.347 63.2706 203.866 62.4632 202.467 61.6019V82.1924H197.46V25.6694H202.467ZM211.187 30.6757C210.487 30.6757 209.276 31.1333 207.554 32.0484C205.831 32.9097 204.135 33.9056 202.467 35.036V55.7073C203.274 56.2456 204.108 56.784 204.97 57.3223C205.885 57.8606 206.746 58.3451 207.554 58.7757C208.361 59.1525 209.088 59.4755 209.734 59.7447C210.38 59.96 210.864 60.0677 211.187 60.0677H224.188C225.587 60.0677 226.529 59.7985 227.014 59.2602C227.498 58.7219 227.74 57.726 227.74 56.2726V34.3901C227.74 32.9905 227.498 32.0215 227.014 31.4832C226.529 30.9449 225.587 30.6757 224.188 30.6757H211.187ZM248.821 41.7381H270.219V41.6573C270.219 38.9119 269.95 36.8125 269.412 35.359C268.927 33.9056 268.308 32.829 267.554 32.1291C266.855 31.4293 266.128 31.0256 265.374 30.9179C264.621 30.8103 264.029 30.7564 263.598 30.7564H241.15V25.6694H263.598C264.675 25.6694 265.886 25.8578 267.232 26.2346C268.631 26.5576 269.923 27.2843 271.107 28.4148C272.345 29.5452 273.368 31.1602 274.176 33.2596C274.983 35.359 275.387 38.1583 275.387 41.6573L275.306 66.043L270.219 65.9622V62.4901C268.766 63.3514 267.205 64.1589 265.536 64.9125C263.921 65.6661 262.494 66.043 261.256 66.043H247.933C247.125 66.043 246.21 65.9622 245.188 65.8007C244.219 65.5854 243.277 65.1547 242.361 64.5088C241.5 63.8628 240.746 62.9477 240.1 61.7634C239.508 60.5791 239.212 59.018 239.212 57.08V50.2973C239.212 49.6513 239.293 48.8438 239.454 47.8748C239.67 46.9059 240.1 45.9638 240.746 45.0487C241.446 44.1336 242.415 43.353 243.653 42.707C244.945 42.0611 246.668 41.7381 248.821 41.7381ZM244.299 50.2973V57.08C244.299 58.5873 244.542 59.6101 245.026 60.1484C245.564 60.6867 246.533 60.9559 247.933 60.9559H261.256C262.01 60.9559 263.248 60.4983 264.971 59.5832C266.747 58.6142 268.497 57.5645 270.219 56.4341V46.8251H248.821C247.798 46.8251 246.991 46.9328 246.399 47.1481C245.807 47.3096 245.349 47.5519 245.026 47.8748C244.703 48.1978 244.488 48.5747 244.38 49.0053C244.326 49.3821 244.299 49.8128 244.299 50.2973ZM281.753 55.7881V35.682C281.753 33.7441 282.156 32.1291 282.964 30.8372C283.771 29.5452 284.767 28.5224 285.952 27.7688C287.19 27.0152 288.482 26.4768 289.827 26.1539C291.227 25.8309 292.465 25.6694 293.542 25.6694H315.99V30.7564H293.542C293.111 30.7564 292.519 30.8103 291.765 30.9179C291.012 30.9718 290.258 31.1602 289.504 31.4832C288.805 31.8062 288.186 32.2906 287.647 32.9366C287.109 33.5826 286.84 34.4977 286.84 35.682V45.0487V55.7881C286.84 56.8647 287.109 57.7529 287.647 58.4527C288.186 59.0987 288.805 59.6101 289.504 59.9869C290.258 60.3637 291.012 60.6329 291.765 60.7944C292.519 60.9021 293.111 60.9559 293.542 60.9559H315.99V66.043H293.542C292.465 66.043 291.227 65.8546 289.827 65.4777C288.482 65.1009 287.19 64.5088 285.952 63.7013C284.767 62.84 283.771 61.7634 282.964 60.4714C282.156 59.1795 281.753 57.6183 281.753 55.7881ZM322.48 50.055C322.48 48.0633 322.48 46.0984 322.48 44.1605C322.533 42.1687 322.56 40.1769 322.56 38.1852C322.56 29.8413 327.244 25.6694 336.61 25.6694H349.853C350.66 25.6694 351.576 25.777 352.598 25.9924C353.621 26.1539 354.563 26.5576 355.424 27.2036C356.34 27.8495 357.093 28.7647 357.685 29.949C358.331 31.1333 358.654 32.6944 358.654 34.6323V41.4151C358.654 42.0611 358.547 42.8685 358.331 43.8375C358.17 44.8065 357.739 45.7485 357.039 46.6636C356.393 47.5788 355.424 48.3593 354.133 49.0053C352.894 49.6513 351.199 49.9743 349.045 49.9743L327.567 50.055C327.567 52.8004 327.809 54.8999 328.293 56.3533C328.832 57.8068 329.451 58.8834 330.151 59.5832C330.904 60.283 331.658 60.6867 332.412 60.7944C333.165 60.9021 333.784 60.9559 334.269 60.9559H358.574V66.043H334.269C333.192 66.043 331.954 65.8546 330.554 65.4777C329.209 65.1009 327.917 64.3473 326.678 63.2168C325.494 62.0864 324.498 60.4714 323.691 58.372C322.883 56.2726 322.48 53.5002 322.48 50.055ZM349.045 44.8872C350.068 44.8872 350.876 44.8065 351.468 44.645C352.06 44.4296 352.491 44.1605 352.76 43.8375C353.083 43.5145 353.271 43.1646 353.325 42.7878C353.433 42.3571 353.487 41.8996 353.487 41.4151V34.6323C353.487 33.125 353.217 32.1022 352.679 31.5639C352.195 31.0256 351.253 30.7564 349.853 30.7564H336.61C335.426 30.7564 334.296 30.8372 333.219 30.9987C332.142 31.1063 331.173 31.4024 330.312 31.8869C329.505 32.3714 328.859 33.125 328.374 34.1478C327.89 35.1168 327.647 36.4626 327.647 38.1852V44.8872H349.045ZM365.099 55.7881V35.682C365.099 33.7441 365.503 32.1291 366.31 30.8372C367.118 29.5452 368.114 28.5224 369.298 27.7688C370.536 27.0152 371.828 26.4768 373.174 26.1539C374.573 25.8309 375.811 25.6694 376.888 25.6694H399.336V30.7564H376.888C376.457 30.7564 375.865 30.8103 375.112 30.9179C374.358 30.9718 373.604 31.1602 372.851 31.4832C372.151 31.8062 371.532 32.2906 370.994 32.9366C370.455 33.5826 370.186 34.4977 370.186 35.682V45.0487V55.7881C370.186 56.8647 370.455 57.7529 370.994 58.4527C371.532 59.0987 372.151 59.6101 372.851 59.9869C373.604 60.3637 374.358 60.6329 375.112 60.7944C375.865 60.9021 376.457 60.9559 376.888 60.9559H399.336V66.043H376.888C375.811 66.043 374.573 65.8546 373.174 65.4777C371.828 65.1009 370.536 64.5088 369.298 63.7013C368.114 62.84 367.118 61.7634 366.31 60.4714C365.503 59.1795 365.099 57.6183 365.099 55.7881ZM405.826 57.08V34.6323C405.826 32.6944 406.122 31.1333 406.714 29.949C407.36 28.7647 408.114 27.8495 408.975 27.2036C409.89 26.5576 410.832 26.1539 411.801 25.9924C412.824 25.777 413.739 25.6694 414.547 25.6694H433.199C434.007 25.6694 434.922 25.777 435.945 25.9924C436.967 26.1539 437.909 26.5576 438.771 27.2036C439.686 27.8495 440.439 28.7647 441.032 29.949C441.678 31.1333 442.001 32.6944 442.001 34.6323V57.08C442.001 59.018 441.678 60.5791 441.032 61.7634C440.439 62.9477 439.686 63.8628 438.771 64.5088C437.909 65.1547 436.967 65.5854 435.945 65.8007C434.922 65.9622 434.007 66.043 433.199 66.043H414.547C413.739 66.043 412.824 65.9622 411.801 65.8007C410.832 65.5854 409.89 65.1547 408.975 64.5088C408.114 63.8628 407.36 62.9477 406.714 61.7634C406.122 60.5791 405.826 59.018 405.826 57.08ZM410.913 34.6323V57.08C410.913 58.5873 411.155 59.6101 411.64 60.1484C412.178 60.6867 413.147 60.9559 414.547 60.9559H433.199C434.599 60.9559 435.541 60.6867 436.025 60.1484C436.564 59.6101 436.833 58.5873 436.833 57.08V34.6323C436.833 33.125 436.564 32.1022 436.025 31.5639C435.541 31.0256 434.599 30.7564 433.199 30.7564H414.547C413.147 30.7564 412.178 31.0256 411.64 31.5639C411.155 32.1022 410.913 33.125 410.913 34.6323ZM449.253 25.6694H454.34V66.043H449.253V25.6694ZM449.253 19.9363V14.7685H454.34V19.9363H449.253ZM461.573 25.6694H466.66V29.2222C468.113 28.3609 469.648 27.5535 471.263 26.7998C472.931 26.0462 474.385 25.6694 475.623 25.6694H488.946C489.754 25.6694 490.669 25.777 491.692 25.9924C492.714 26.2077 493.657 26.6383 494.518 27.2843C495.433 27.8765 496.187 28.7647 496.779 29.949C497.371 31.1333 497.667 32.6944 497.667 34.6323V66.043H492.58V34.6323C492.58 33.1789 492.311 32.183 491.772 31.6447C491.288 31.1063 490.346 30.8372 488.946 30.8372H475.623C474.869 30.8372 473.604 31.2948 471.828 32.2099C470.105 33.125 468.383 34.1478 466.66 35.2783V66.043H461.573V25.6694Z" fill="#FDD400"/>
</svg>
