<svg width="1000" height="1001" viewBox="0 0 1000 1001" fill="none" xmlns="http://www.w3.org/2000/svg">
<path fill-rule="evenodd" clip-rule="evenodd" d="M348.498 522.502L593.056 381.307C567.177 360.906 534.51 348.734 499.001 348.734C415.026 348.734 346.951 416.809 346.951 500.784C346.951 508.151 347.475 515.396 348.487 522.483L215.74 599.125L271.481 695.67L403.766 619.296C374.46 595.719 354.081 561.498 348.498 522.502ZM649.293 477.54C643.332 438.636 622.625 404.588 593.056 381.281L725.324 304.916L781.065 401.462L649.293 477.54ZM499.001 652.834C462.949 652.834 429.827 640.287 403.765 619.321L649.29 477.567C650.449 485.137 651.051 492.89 651.051 500.784C651.051 584.759 582.976 652.834 499.001 652.834Z" fill="black"/>
</svg>
